<?xml version="1.0" encoding="utf-8"?>
<!-- Generator: Adobe Illustrator 23.0.3, SVG Export Plug-In . SVG Version: 6.00 Build 0)  -->
<svg version="1.1" id="Layer_1" xmlns="http://www.w3.org/2000/svg" xmlns:xlink="http://www.w3.org/1999/xlink" x="0px" y="0px"
	 viewBox="0 0 954.4 792.9" style="enable-background:new 0 0 954.4 792.9;" xml:space="preserve">
<style type="text/css">
	.st0{fill:#004539;}
	.st1{opacity:0.58;}
	.st2{enable-background:new    ;}
	.st3{fill:#233862;}
	.st4{fill:#45A895;}
	.st5{fill:#308C7A;}
	.st6{fill:#2A4E96;}
	.st7{fill:#B56F40;}
	.st8{fill:#99592E;}
	.st9{fill:#2C3A64;}
	.st10{fill:#EBF3FA;}
	.st11{fill:#F99746;}
	.st12{fill:#E6A330;}
	.st13{fill:#FFB93E;}
</style>
<g class="st1">
	<path class="st0" d="M173.5,46.7l75.8,58.3c-68.3,92.3-83.3,208.1-50,310c4.1,12.5,8.9,24.7,14.4,36.7c22.4,48.8,56.7,93,102.3,128
		c50.5,38.8,108.3,61.3,167.2,68.4c19.2,2.3,38.6,3,57.8,2.1c19.2-0.9,38.3-3.5,57.1-7.6c5.2-1.1,10.4-2.4,15.5-3.8
		c68.1-18.3,131.1-57.7,178.3-116.9l75.8,58.3c-148.2,187.3-419.9,221.4-610,75.3S30.7,238.2,173.5,46.7z"/>
</g>
</svg>
