<?xml version="1.0" encoding="utf-8"?>
<!-- Generator: Adobe Illustrator 23.0.3, SVG Export Plug-In . SVG Version: 6.00 Build 0)  -->
<svg version="1.1" id="Layer_1" xmlns="http://www.w3.org/2000/svg" xmlns:xlink="http://www.w3.org/1999/xlink" x="0px" y="0px"
	 viewBox="0 0 661 176" style="enable-background:new 0 0 661 176;" xml:space="preserve">
<style type="text/css">
	.st0{fill:#FFFFFF;fill-opacity:0.15;filter:url(#Adobe_OpacityMaskFilter);}
	.st1{fill:#FFFFFF;fill-opacity:0.15;}
	.st2{mask:url(#mask0_2_);}
	.st3{fill:#C4C4C4;}
</style>
<defs>
	<filter id="Adobe_OpacityMaskFilter" filterUnits="userSpaceOnUse" x="0" y="0" width="661" height="176">
		<feColorMatrix  type="matrix" values="1 0 0 0 0  0 1 0 0 0  0 0 1 0 0  0 0 0 1 0"/>
	</filter>
</defs>
<mask maskUnits="userSpaceOnUse" x="0" y="0" width="661" height="176" id="mask0_2_">
	<path class="st0" d="M290.7,11.2c130.9,0,317.1,107.3,395.3,171.3l12,16.2l-856,19.3c0.8-11.9,62.5,0.3,144.9-56.6
		C33.9,129,129.8,11.2,290.7,11.2z"/>
	<path class="st1" d="M140.3,11.2c131.1,0,317.5,107.3,395.7,171.3l12,16.2l-857,19.3c0.8-11.9,62.6,0.3,145.1-56.6
		C-116.9,129-20.8,11.2,140.3,11.2z"/>
	<path class="st1" d="M478.3,12.2c131.1,0,317.5,107.3,395.7,171.3l12,16.2L29,219.1c0.8-11.9,62.6,0.3,145.1-56.6
		C221.1,130,317.2,12.2,478.3,12.2z"/>
</mask>
<g class="st2">
	<rect class="st3" width="661" height="176"/>
</g>
</svg>
