<svg width="42" height="41" viewBox="0 0 42 41" fill="none" xmlns="http://www.w3.org/2000/svg">
<path d="M17.5209 40.6657C7.86561 38.9618 0.482178 30.5561 0.482178 20.4464C0.482178 9.2009 9.68308 0 20.9286 0C32.1742 0 41.3751 9.2009 41.3751 20.4464C41.3751 30.5561 33.9916 38.9618 24.3364 40.6657L23.2004 39.757H18.6568L17.5209 40.6657Z" fill="url(#paint0_linear)"/>
<path d="M28.8802 26.126L29.7889 20.4464H24.3365V16.4707C24.3365 14.8804 24.9045 13.6309 27.4035 13.6309H30.0161V8.40572C28.5394 8.17854 26.9491 7.95135 25.4724 7.95135C20.8152 7.95135 17.521 10.7911 17.521 15.9027V20.4464H12.4094V26.126H17.521V40.5521C18.6569 40.7793 19.7929 40.8928 20.9288 40.8928C22.0647 40.8928 23.2006 40.7793 24.3365 40.5521V26.126H28.8802Z" fill="white"/>
<defs>
<linearGradient id="paint0_linear" x1="20.9286" y1="39.4775" x2="20.9286" y2="0" gradientUnits="userSpaceOnUse">
<stop stop-color="#0062E0"/>
<stop offset="1" stop-color="#19AFFF"/>
</linearGradient>
</defs>
</svg>
