<svg width="39" height="39" viewBox="0 0 39 39" fill="none" xmlns="http://www.w3.org/2000/svg">
<path fill-rule="evenodd" clip-rule="evenodd" d="M37.8487 19.9014C37.8487 18.5321 37.7258 17.2154 37.4976 15.9515H19.3105V23.4211H29.7031C29.2555 25.835 27.895 27.8801 25.8498 29.2494V34.0946H32.0906C35.7421 30.7328 37.8487 25.7823 37.8487 19.9014Z" fill="#4285F4"/>
<path fill-rule="evenodd" clip-rule="evenodd" d="M19.3106 38.773C24.5244 38.773 28.8956 37.0439 32.0906 34.0946L25.8498 29.2494C24.1207 30.408 21.9087 31.0927 19.3106 31.0927C14.281 31.0927 10.0239 27.6958 8.50544 23.1315H2.05396V28.1347C5.23142 34.4457 11.7619 38.773 19.3106 38.773Z" fill="#34A853"/>
<path fill-rule="evenodd" clip-rule="evenodd" d="M8.50542 23.1315C8.11921 21.9729 7.89977 20.7353 7.89977 19.4625C7.89977 18.1898 8.11921 16.9522 8.50542 15.7935V10.7903H2.05394C0.74609 13.3973 0 16.3465 0 19.4625C0 22.5786 0.74609 25.5278 2.05394 28.1347L8.50542 23.1315Z" fill="#FBBC05"/>
<path fill-rule="evenodd" clip-rule="evenodd" d="M19.3106 7.83231C22.1457 7.83231 24.6912 8.80662 26.6925 10.7201L32.2311 5.1815C28.8868 2.06548 24.5156 0.151978 19.3106 0.151978C11.7619 0.151978 5.23142 4.4793 2.05396 10.7903L8.50543 15.7935C10.0239 11.2292 14.281 7.83231 19.3106 7.83231Z" fill="#EA4335"/>
</svg>
