<?xml version="1.0" encoding="utf-8"?>
<!-- Generator: Adobe Illustrator 23.0.3, SVG Export Plug-In . SVG Version: 6.00 Build 0)  -->
<svg version="1.1" id="Layer_1" xmlns="http://www.w3.org/2000/svg" xmlns:xlink="http://www.w3.org/1999/xlink" x="0px" y="0px"
	 viewBox="0 0 2500 2500" style="enable-background:new 0 0 2500 2500;" xml:space="preserve">
<style type="text/css">
	.st0{fill-rule:evenodd;clip-rule:evenodd;fill:#969696;}
	.st1{fill:#969696;}
</style>
<path class="st0" d="M723.9,297.2l527.5,954.2l-389.2,706.3L723.9,297.2z M1776.1,297.2l-524.7,954.2l389.2,706.3L1776.1,297.2
	L1776.1,297.2z"/>
<path class="st1" d="M779.6,110.3h940.8c67.6,0,129,27.6,173.5,72.2l-0.1,0c44.5,44.6,72.2,106,72.2,173.5v1788
	c0,67.5-27.7,128.9-72.2,173.5l0.1,0c-44.5,44.5-106,72.2-173.5,72.2H779.6c-67.5,0-128.9-27.6-173.4-72.2l-0.1-0.1
	c-44.5-44.6-72.2-106-72.2-173.4V356c0-67.5,27.7-128.9,72.2-173.4l0.1-0.1C650.7,137.9,712.1,110.3,779.6,110.3L779.6,110.3z
	 M1720.4,158.3H779.6c-52.4,0-102.6,20.9-139.6,58l-0.1,0.1c-37.1,37-58,87.2-58,139.6v1788c0,54.4,22.2,103.8,58,139.6l0.1,0.1
	c37,37.1,87.2,58,139.6,58h940.8c54.3,0,103.7-22.2,139.6-58.1h0.1c37.1-37,58-87.2,58-139.6V356c0-54.4-22.2-103.8-58-139.6h-0.1
	C1824.1,180.6,1774.7,158.3,1720.4,158.3L1720.4,158.3z"/>
<path class="st0" d="M1080.4,1698.5v91.3c0,3.7-0.6,7.1-1.7,10.3c-1.1,3.2-4,4.8-8.5,4.8c-4.4,0-7.3-2.7-8.5-8.1
	c-1.3-5.4-1.9-12.7-1.9-21.9h-41.9c-2.1,21.8,1.9,38.3,12,49.3c10.1,11,24.7,16.5,43.5,16.5c3.7,0,8.6-0.5,14.6-1.6
	c6-1.1,12-3.4,17.8-6.9c5.8-3.5,10.8-8.7,15-15.4c4.2-6.7,6.3-15.7,6.3-26.9v-91.3L1080.4,1698.5L1080.4,1698.5L1080.4,1698.5z
	 M1199,1732.5c-5.5,0-11.6,0.8-18.3,2.6c-6.7,1.7-12.8,4.6-18.5,8.6s-10.4,9.5-14.3,16.3c-3.8,6.8-5.7,15.3-5.7,25.3
	c0,10.2,1.7,18.8,5.1,25.8c3.4,7,7.9,12.7,13.4,17c5.5,4.3,11.8,7.5,18.7,9.5c7,2,14,3,21.3,3c7.1,0,14.1-1.1,21-3.2
	s13-5.4,18.5-9.9c5.6-4.6,10.1-10.5,13.1-17.1c3.3-6.9,4.7-15.3,4.5-25.1c-0.4-9.7-2.4-17.9-6.1-24.6c-3.3-6.4-8-12-13.7-16.4
	c-5.5-4.2-11.8-7.3-18.5-9C1212.7,1733.4,1205.9,1732.5,1199,1732.5L1199,1732.5z M1199,1761.4c3.4,0,6.2,0.8,8.5,2.3
	c2.3,1.5,4.1,3.4,5.4,5.7c1.3,2.4,2.3,4.9,3,7.8c0.6,2.8,0.9,5.5,0.9,8.1c0,2.7-0.2,5.6-0.6,8.8c-0.4,3.1-1.2,6-2.5,8.8
	c-1.1,2.6-2.8,4.9-4.9,6.7c-2.1,1.8-4.8,2.6-8.2,2.6c-3,0.1-6-0.8-8.4-2.6c-2.4-1.8-4.3-4.1-5.7-6.7c-1.5-2.8-2.6-5.8-3.2-8.8
	c-0.6-2.9-0.9-5.9-1-8.8c0-2.6,0.3-5.3,1-8.1c0.6-2.7,1.6-5.4,3-7.8c1.3-2.3,3.1-4.3,5.2-5.7
	C1193.7,1762.2,1196.3,1761.4,1199,1761.4L1199,1761.4z M1268.3,1698.5v137.9h40.9v-55.8c0-5.1,1.4-9,4.4-11.6c2.9-2.6,6.1-4,9.7-4
	s6.8,1.3,9.7,4c2.9,2.6,4.4,6.5,4.4,11.6v55.8h40.4v-68.9c0-9.8-2.8-17.5-8.4-23.1c-5.4-5.5-12.3-9.3-19.8-10.9
	c-7.6-1.6-15.2-1.2-22.8,1.2s-13.4,6.8-17.6,13.2v-49.4L1268.3,1698.5L1268.3,1698.5L1268.3,1698.5z M1387.9,1735.7v100.7h40.9v-57
	c0-4.5,1.4-7.9,4.2-10.1c2.8-2.2,5.8-3.3,9.1-3.3s6.4,1.1,9.2,3.3c2.8,2.2,4.1,5.6,4.1,10.1v57h40.7v-70.7c0-8.9-2.8-16.1-8.5-21.6
	c-5.7-5.5-12.4-8.9-20.1-10.4c-7.7-1.5-15.7-0.9-23.7,1.8c-8.1,2.7-14.6,7.8-19.6,15.3v-15.1L1387.9,1735.7L1387.9,1735.7
	L1387.9,1735.7z M938.6,1898.2v137.9h46.6v-44.9l9.1-9.1l32.8,54.1h55.8l-55.8-85.5l50-52.4h-54.1l-37.9,41.5v-41.5H938.6z
	 M1128.7,1972.9c1.7-5.8,4-9.8,6.8-11.8c2.8-2,6.1-3.1,9.8-3.1c4.5,0,8.5,1,12,3.1c3.5,2,6,6,7.6,11.8H1128.7z M1128.7,1994.2h75.3
	c0.3-3.4,0-8.6-0.9-15.4c-1-7.3-3.5-14.3-7.3-20.6c-4-6.9-10.1-12.9-18.2-18.1c-8.1-5.2-19.3-7.8-33.6-7.8c-12.8,0-23.3,2.7-31.7,8
	c-8.4,5.3-14.6,12-18.7,20c-4.1,8-6.2,16.9-6.1,25.8c0.1,9.2,2.3,17.8,6.7,25.7c4.4,7.9,10.9,14.4,19.4,19.6
	c8.5,5.2,19.1,7.6,31.7,7.3c9.1,0,16.9-0.9,23.5-2.8c6.6-1.8,12.1-4.3,16.6-7.4c4.5-3.1,8-6.7,10.5-10.8c2.6-4.1,4.3-8.4,5.1-13
	h-39.2c-0.8,3.3-3.1,6.1-6.3,7.4c-3.4,1.5-7.1,2-10.8,1.4c-4-0.7-7.7-2.7-10.5-5.6C1131.1,2004.7,1129.2,2000.1,1128.7,1994.2
	L1128.7,1994.2z M1251.3,1972.9c1.7-5.8,4-9.8,6.8-11.8c2.8-2,6.1-3.1,9.8-3.1c4.5,0,8.5,1,12,3.1c3.5,2,6,6,7.6,11.8H1251.3z
	 M1251.3,1994.2h75.3c0.3-3.4,0-8.6-0.8-15.4c-1-7.3-3.5-14.3-7.3-20.6c-4-6.9-10.1-12.9-18.2-18.1c-8.1-5.2-19.3-7.8-33.6-7.8
	c-12.8,0-23.3,2.7-31.7,8c-8.4,5.3-14.6,12-18.7,20c-4.1,8-6.2,16.9-6.1,25.8c0.1,9.2,2.3,17.8,6.7,25.7
	c4.4,7.9,10.9,14.4,19.4,19.6c8.5,5.2,19.1,7.6,31.7,7.3c9.1,0,16.9-0.9,23.5-2.8c6.6-1.8,12.1-4.3,16.6-7.4
	c8.2-5.5,13.8-14.1,15.6-23.8h-39.2c-0.8,3.3-3.1,6.1-6.3,7.4c-3.3,1.5-6.9,2-10.7,1.4c-3.8-0.6-7.3-2.5-10.5-5.6
	C1253.7,2004.7,1251.8,2000.1,1251.3,1994.2L1251.3,1994.2z M1341.9,1896.5v139.6h40.7v-139.6H1341.9z M1406.4,1896.5v139.6h40.6
	v-139.6H1406.4z M1526.5,1965.4h36.2c0.4-3.8-0.2-7.7-1.8-11.1c-1.8-4-4.7-7.5-8.2-10.1c-3.8-3-8.9-5.4-15.2-7.3
	c-6.3-1.9-13.9-2.9-22.9-2.9c-3.9,0-7.7,0.4-11.4,1.1c-3.5,0.6-6.9,1.5-10.3,2.6c-3.8,1.2-7.6,2.6-11.3,4.3
	c-4.7,3.1-8.1,6.5-10.1,10.2c-2,3.7-3.3,7.3-3.6,10.9c-0.4,3.6-0.2,6.8,0.5,9.8c0.7,3,1.4,5.2,2.1,6.8c1.3,2.6,3.7,5.1,7.1,7.5
	c3.5,2.5,7.6,4.8,12.4,6.9c4.8,2.2,10.1,4,15.7,5.7c5.6,1.6,11.3,2.9,17.1,3.7c2.3,0.4,3.9,1.3,4.9,2.7c1,1.3,1.3,2.8,1.1,4.3
	c-0.3,1.5-1.2,2.8-2.8,4c-1.5,1.1-3.7,1.8-6.6,1.9c-3.6,0-7.3-0.7-11.1-2c-3.7-1.2-6.4-4.2-7.3-8h-38.9c1.1,7.5,3.3,13.5,6.7,18
	c3.3,4.5,7.4,7.9,12.2,10.3c4.8,2.4,10.3,4,16.3,4.8s12.3,1.2,18.8,1.2c9.8,0,18.2-1.1,25.2-3.4c7-2.3,12.6-5.3,16.8-9.1
	c4.2-3.7,7-8.1,8.4-13c1.4-4.9,1.3-10-0.2-15.4c-1.2-4.7-3.8-8.9-7.3-12.1c-3.5-3.1-7.4-5.7-11.7-7.5c-4.4-1.9-9-3.4-13.6-4.5
	c-4.4-1-8.8-1.9-13.2-2.9c-3.5-0.7-6.9-1.6-10.2-2.8c-2.8-1-4.5-2.4-5-4.3c-0.7-2.8-0.1-4.9,1.9-6.4c2-1.4,4.5-2.2,7-2.2
	c2.7,0,5.3,0.7,7.8,2.2C1524.5,1960.3,1526.1,1962.7,1526.5,1965.4L1526.5,1965.4z M826.5,2096.4v137.9h46.6v-52.8h40.7v52.8h46.6
	v-137.9h-46.6v46.4h-40.7v-46.4H826.5z M1028,2130.5c-5.5,0-11.6,0.8-18.3,2.6c-6.7,1.7-12.8,4.6-18.5,8.6
	c-5.7,4-10.4,9.5-14.3,16.3c-3.8,6.8-5.7,15.3-5.7,25.3c0,10.2,1.7,18.8,5.1,25.8c3.4,7,7.9,12.7,13.4,17c5.5,4.3,11.8,7.5,18.7,9.5
	c7,2,14,3,21.3,3c7.1,0,14.1-1.1,21-3.2c6.9-2.1,13.1-5.4,18.5-9.9c5.6-4.6,10.1-10.5,13.1-17.1c3.3-6.9,4.7-15.3,4.5-25.1
	c-0.4-9.7-2.4-17.9-6.1-24.6c-3.6-6.7-8.2-12.2-13.7-16.4c-5.5-4.2-11.8-7.3-18.5-9C1041.8,2131.4,1035,2130.5,1028,2130.5
	L1028,2130.5z M1028,2159.4c3.4,0,6.2,0.8,8.5,2.3c2.3,1.5,4.1,3.4,5.4,5.7c1.3,2.4,2.3,4.9,3,7.8c0.6,2.8,0.9,5.5,0.9,8.1
	c0,2.7-0.2,5.6-0.6,8.8c-0.4,3.1-1.2,6-2.5,8.8c-1.1,2.6-2.8,4.9-4.9,6.7c-2,1.8-4.8,2.6-8.2,2.6c-3.3,0-6.1-0.9-8.4-2.6
	c-2.4-1.8-4.3-4.1-5.7-6.7c-1.5-2.8-2.6-5.8-3.2-8.8c-0.6-2.9-0.9-5.9-1-8.8c0-2.6,0.3-5.3,1-8.1c0.6-2.7,1.6-5.4,3-7.8
	c1.3-2.3,3.1-4.3,5.2-5.7C1022.8,2160.2,1025.4,2159.4,1028,2159.4L1028,2159.4z M1102.1,2094.7v139.6h40.6v-139.6H1102.1z
	 M1228.5,2094.7v46.4c-2.4-3.3-5.8-5.9-10.3-7.9c-4.6-2-9.6-3.2-14.7-3.4c-5.5-0.3-11,0.5-16.3,2.2c-5.6,1.8-10.8,4.9-15,9
	c-4.5,4.3-8.1,9.9-10.9,17c-2.8,7.1-4.3,15.9-4.3,26.4c0,10.5,1.7,19.2,5.1,26.3c3.4,7,7.7,12.5,13,16.5c5.3,4,11,6.6,17.1,7.8
	c6.2,1.3,12.1,1.5,17.8,0.8c5.3-0.6,10.3-2.4,14.8-5.2c4.2-2.7,6.9-6,8.2-9.8v13.4h36.2v-139.6H1228.5z M1213.8,2207.3
	c-5.7,0-9.9-2.4-12.8-7c-2.8-4.7-4.3-10-4.3-15.4c0-5.6,1.4-10.7,4.3-15.4c2.8-4.7,7.1-7,12.8-7c6,0,10.4,2.3,13.2,7
	c2.8,4.7,4.2,9.8,4,15.4c-0.1,5.6-1.7,10.8-4.6,15.4C1223.6,2205,1219.4,2207.3,1213.8,2207.3z M1289.6,2134.9v99.4h40.2v-99.4
	H1289.6z M1289.6,2094.7v29.8h40.2v-29.8H1289.6z M1348.1,2133.7v100.7h40.9v-57c0-4.5,1.4-7.9,4.2-10.1c5.3-4.4,13-4.4,18.3,0
	c2.8,2.2,4.2,5.6,4.2,10.1v57h40.7v-70.7c0-8.9-2.8-16.1-8.5-21.6c-5.5-5.4-12.5-9-20.1-10.4c-7.9-1.5-16.1-0.8-23.7,1.8
	c-8.1,2.7-14.6,7.8-19.6,15.3v-15.1L1348.1,2133.7L1348.1,2133.7z M1541.4,2133.7v10.9c-2.1-3.7-5.3-6.6-9.7-8.6s-9.1-3.3-14.4-3.6
	s-10.7,0.2-16.3,1.7c-5.6,1.5-10.9,4.2-15.5,7.8c-4.9,3.9-9,8.8-11.9,14.4c-3.2,5.9-5.1,12.9-5.6,21.2c-0.7,13.2,1.7,23.8,7.1,31.9
	c5.5,8.1,12.2,13.8,20.1,17.1c8,3.3,16.3,4.4,24.9,3.2c8.7-1.2,15.8-4.6,21.3-10.1v11.9c0,4.4-1.2,7.7-3.7,9.8
	c-2.4,2.1-5.3,3.4-8.4,3.8c-3.1,0.4-6.2,0-9-1.2c-2.9-1.2-4.7-3-5.4-5.2h-40.7c0.3,3.3,1.5,6.7,3.5,10.2c2,3.5,5.2,6.8,9.5,9.7
	c4.3,2.9,9.9,5.3,16.8,7.1c6.9,1.9,15.4,2.8,25.5,2.8c16.3,0,28.6-4,36.9-12c8.3-8,12.4-18.7,12.4-32v-90.7L1541.4,2133.7
	L1541.4,2133.7L1541.4,2133.7z M1524.8,2160.7c5.2,0,9.1,2.1,11.7,6.4s3.8,8.9,3.8,14c0,5.1-1.3,9.8-3.9,14.1
	c-2.6,4.3-6.5,6.4-11.6,6.4c-4.7,0.2-9.1-2.3-11.4-6.4c-2.6-4.2-4-9.1-4-14.1c-0.1-5.1,1.2-9.8,3.7-14
	C1515.6,2162.8,1519.5,2160.7,1524.8,2160.7L1524.8,2160.7z M1654.4,2163.7h36.2c0.4-3.8-0.2-7.7-1.8-11.2c-1.8-4-4.6-7.5-8.2-10.1
	c-3.8-3-8.9-5.4-15.2-7.3c-6.3-1.9-13.9-2.9-22.9-2.9c-3.8,0-7.6,0.4-11.4,1.1c-3.7,0.7-7.2,1.6-10.3,2.6c-3.8,1.2-7.6,2.6-11.3,4.3
	c-4.7,3.1-8.1,6.5-10.1,10.2c-2,3.7-3.3,7.3-3.6,10.9c-0.4,3.6-0.2,6.8,0.5,9.8s1.4,5.2,2.1,6.8c1.3,2.6,3.6,5.1,7.1,7.5
	c3.5,2.5,7.6,4.8,12.5,6.9c4.8,2.2,10,4,15.6,5.7c5.6,1.6,11.3,2.9,17.1,3.7c2.3,0.4,3.9,1.3,4.9,2.7c1,1.3,1.3,2.8,1.1,4.3
	c-0.3,1.5-1.2,2.8-2.8,4c-1.6,1.1-3.8,1.8-6.6,1.9c-3.5,0-7.2-0.7-11.1-2c-3.7-1.2-6.4-4.2-7.3-8h-39c1.1,7.5,3.4,13.5,6.7,18
	c3.3,4.5,7.4,7.9,12.2,10.3c4.8,2.4,10.3,4,16.3,4.8s12.3,1.2,18.8,1.2c9.8,0,18.2-1.1,25.2-3.4c7-2.3,12.6-5.3,16.8-9
	c4.2-3.7,7-8.1,8.4-13c1.4-4.9,1.3-10-0.2-15.4c-1.4-5-3.9-9-7.3-12.1c-3.5-3.1-7.4-5.7-11.7-7.5c-4.4-1.9-8.9-3.4-13.6-4.5
	c-4.4-1-8.8-1.9-13.2-2.9c-3.5-0.7-6.9-1.6-10.2-2.8c-2.8-1-4.4-2.4-5-4.3c-0.7-2.8-0.1-4.9,1.9-6.4c2.1-1.4,4.5-2.2,7-2.2
	c2.7,0,5.3,0.7,7.8,2.2C1652.5,2158.7,1654,2160.8,1654.4,2163.7L1654.4,2163.7z"/>
</svg>
