<?xml version="1.0" encoding="utf-8"?>
<!-- Generator: Adobe Illustrator 23.0.3, SVG Export Plug-In . SVG Version: 6.00 Build 0)  -->
<svg version="1.1" id="Layer_1" xmlns="http://www.w3.org/2000/svg" xmlns:xlink="http://www.w3.org/1999/xlink" x="0px" y="0px"
	 viewBox="0 0 1947.7 719" style="enable-background:new 0 0 1947.7 719;" xml:space="preserve">
<style type="text/css">
	.st0{fill:#007C67;}
	.st1{fill:#FFFFFF;}
</style>
<g>
	<polygon class="st0" points="934,245.2 507.9,434.9 81.9,245.2 302,147.2 502.3,236.5 502.3,230.9 308.2,144.4 507.9,55.5 	"/>
</g>
<g>
	<polygon class="st0" points="179.9,298.6 502.3,441.8 502.3,680.6 179.9,537.3 	"/>
</g>
<g>
	<polygon class="st0" points="835.3,298.6 513,441.8 513,680.6 835.3,537.3 	"/>
</g>
<g>
	<path class="st1" d="M415.5,489.4l-46.8-20.8V607l-41.6-18.5V450.1l-46.8-20.8v-39l135.2,60V489.4z"/>
</g>
<g>
	<path class="st1" d="M765.3,547.8l-37,16.2V460.9l-41.8,93.7l-4.2,1.8l-41.8-56.9v103.2l-37,16.2V441.4l37-16.2l43.9,59.6
		l43.9-98.1l37-16.2V547.8z"/>
</g>
<ellipse class="st1" cx="502.3" cy="233.7" rx="26.9" ry="15.4"/>
<polygon class="st1" points="502.3,230.9 502.3,236.5 302,147.2 308.2,144.4 "/>
<g>
	<path class="st0" d="M1218.9,168.1h-74.2v225.1h-66V168.1h-74.2v-63.5h214.4V168.1z"/>
	<path class="st0" d="M1313.3,343.7c16.9,0,31.3-6.6,39.6-15.7l49.5,28.4c-20.2,28-50.7,42.5-89.9,42.5
		c-70.5,0-114.2-47.4-114.2-108.8c0-61.4,44.5-108.8,109.7-108.8c60.2,0,104.7,46.6,104.7,108.8c0,8.7-0.8,16.9-2.5,24.7h-146.3
		C1271.7,336.3,1290.6,343.7,1313.3,343.7z M1351.2,268.7c-6.6-23.9-25.1-32.6-43.7-32.6c-23.5,0-39.2,11.5-44.9,32.6H1351.2z"/>
	<path class="st0" d="M1435.3,290.1c0-61.4,46.6-108.8,109.2-108.8c40,0,75.4,21,93.2,52.8l-54,31.3c-7-14.4-21.8-23.1-40-23.1
		c-26.8,0-46.6,19.4-46.6,47.8c0,28.4,19.8,47.8,46.6,47.8c18.1,0,33.4-8.7,40-23.1l54,30.9C1620,378,1585,399,1544.6,399
		C1481.9,399,1435.3,351.6,1435.3,290.1z"/>
	<path class="st0" d="M1860.3,266.7v126.6h-61.8V275.7c0-25.6-16.1-37.5-35.9-37.5c-22.7,0-38.3,13.2-38.3,42.5v112.5h-61.8V104.6
		h61.8v101.8c11.1-15.3,31.7-25.1,58.9-25.1C1824.9,181.3,1860.3,211,1860.3,266.7z"/>
</g>
<g>
	<path d="M1202.7,570.9h-28.3v-72.1l-32,52.6h-3.2l-32-52.6v72.1h-28.3V447h28.3l33.6,55.1l33.6-55.1h28.3V570.9z"/>
	<path d="M1301.9,543.7v27.3h-77.9V447h77v27.3h-48.7v20.5h44.3v26.9h-44.3v22H1301.9z"/>
	<path d="M1415.2,447v123.9h-21.2l-47.8-67.3v67.3h-28.3V447h21.2l47.8,67.3V447H1415.2z"/>
	<path d="M1519.7,474.3h-31.9v96.7h-28.3v-96.7h-31.9V447h92.1V474.3z"/>
	<path d="M1519.7,509c0-36.5,28.9-64.5,64.5-64.5c35.6,0,64.5,28,64.5,64.5c0,36.5-28.9,64.5-64.5,64.5
		C1548.5,573.4,1519.7,545.4,1519.7,509z M1620.2,509c0-22.1-15.9-36.8-36.1-36.8c-20.2,0-36.1,14.7-36.1,36.8
		c0,22.1,15.9,36.8,36.1,36.8C1604.3,545.8,1620.2,531.1,1620.2,509z"/>
	<path d="M1706.3,530.2h-13.5v40.7h-28.3V447h49.6c23.6,0,42.5,18.9,42.5,42.5c0,15.2-9.2,29-22.8,35.9l26.4,45.5h-30.5
		L1706.3,530.2z M1692.8,505.4h21.2c7.8,0,14.2-6.9,14.2-15.9s-6.4-15.9-14.2-15.9h-21.2V505.4z"/>
	<path d="M1765.4,542.8l24.4-14.2c4.4,10.3,12,17.2,26,17.2c13.5,0,16.8-5.3,16.8-10.1c0-7.6-7.1-10.6-25.7-15.8
		c-18.4-5.1-36.5-14-36.5-37.7c0-23.9,20.2-37.7,41.6-37.7c20.4,0,36.3,9.7,45.3,28l-23.9,14c-4.2-8.9-10.1-14.3-21.4-14.3
		c-8.9,0-13.3,4.4-13.3,9.4c0,5.7,3,9.6,22.3,15.4c18.8,5.7,39.8,12.2,39.8,38.4c0,23.9-19.1,38.1-46,38.1
		C1789,573.4,1772.3,561,1765.4,542.8z"/>
</g>
</svg>
