<?xml version="1.0" encoding="utf-8"?>
<!-- Generator: Adobe Illustrator 23.0.3, SVG Export Plug-In . SVG Version: 6.00 Build 0)  -->
<svg version="1.1" id="Layer_1" xmlns="http://www.w3.org/2000/svg" xmlns:xlink="http://www.w3.org/1999/xlink" x="0px" y="0px"
	 viewBox="0 0 1778.4 719" style="enable-background:new 0 0 1778.4 719;" xml:space="preserve">
<style type="text/css">
	.st0{fill:#FFFFFF;}
	.st1{fill:#00382F;}
</style>
<g>
	<polygon class="st0" points="852.1,245.2 426,434.9 0,245.2 220.1,147.2 420.4,236.5 420.4,230.9 226.3,144.4 426,55.5 	"/>
</g>
<g>
	<polygon class="st0" points="98,298.6 420.4,441.8 420.4,680.6 98,537.3 	"/>
</g>
<g>
	<polygon class="st0" points="753.4,298.6 431.1,441.8 431.1,680.6 753.4,537.3 	"/>
</g>
<g>
	<path class="st1" d="M333.6,489.4l-46.8-20.8V607l-41.6-18.5V450.1l-46.8-20.8v-39l135.2,60V489.4z"/>
</g>
<g>
	<path class="st1" d="M683.4,547.8l-37,16.2V460.9l-41.8,93.7l-4.2,1.8l-41.8-56.9v103.2l-37,16.2V441.4l37-16.2l43.9,59.6
		l43.9-98.1l37-16.2L683.4,547.8L683.4,547.8z"/>
</g>
<ellipse class="st1" cx="420.4" cy="233.7" rx="26.9" ry="15.4"/>
<polygon class="st1" points="420.4,230.9 420.4,236.5 220.1,147.2 226.3,144.4 "/>
<g>
	<path class="st0" d="M1137,168.1h-74.2v225.1h-66V168.1h-74.2v-63.5H1137V168.1z"/>
	<path class="st0" d="M1231.4,343.7c16.9,0,31.3-6.6,39.6-15.7l49.5,28.4c-20.2,28-50.7,42.5-89.9,42.5
		c-70.5,0-114.2-47.4-114.2-108.8s44.5-108.8,109.7-108.8c60.2,0,104.7,46.6,104.7,108.8c0,8.7-0.8,16.9-2.5,24.7H1182
		C1189.8,336.3,1208.7,343.7,1231.4,343.7z M1269.3,268.7c-6.6-23.9-25.1-32.6-43.7-32.6c-23.5,0-39.2,11.5-44.9,32.6H1269.3z"/>
	<path class="st0" d="M1353.4,290.1c0-61.4,46.6-108.8,109.2-108.8c40,0,75.4,21,93.2,52.8l-54,31.3c-7-14.4-21.8-23.1-40-23.1
		c-26.8,0-46.6,19.4-46.6,47.8s19.8,47.8,46.6,47.8c18.1,0,33.4-8.7,40-23.1l54,30.9c-17.7,32.3-52.7,53.3-93.1,53.3
		C1400,399,1353.4,351.6,1353.4,290.1z"/>
	<path class="st0" d="M1778.4,266.7v126.6h-61.8V275.7c0-25.6-16.1-37.5-35.9-37.5c-22.7,0-38.3,13.2-38.3,42.5v112.5h-61.8V104.6
		h61.8v101.8c11.1-15.3,31.7-25.1,58.9-25.1C1743,181.3,1778.4,211,1778.4,266.7z"/>
</g>
<g>
	<path class="st0" d="M1120.8,570.9h-28.3v-72.1l-32,52.6h-3.2l-32-52.6v72.1H997V447h28.3l33.6,55.1l33.6-55.1h28.3V570.9z"/>
	<path class="st0" d="M1220,543.7V571h-77.9V447h77v27.3h-48.7v20.5h44.3v26.9h-44.3v22H1220z"/>
	<path class="st0" d="M1333.3,447v123.9h-21.2l-47.8-67.3v67.3H1236V447h21.2l47.8,67.3V447H1333.3z"/>
	<path class="st0" d="M1437.8,474.3h-31.9V571h-28.3v-96.7h-31.9V447h92.1L1437.8,474.3L1437.8,474.3z"/>
	<path class="st0" d="M1437.8,509c0-36.5,28.9-64.5,64.5-64.5s64.5,28,64.5,64.5s-28.9,64.5-64.5,64.5
		C1466.6,573.4,1437.8,545.4,1437.8,509z M1538.3,509c0-22.1-15.9-36.8-36.1-36.8s-36.1,14.7-36.1,36.8s15.9,36.8,36.1,36.8
		C1522.4,545.8,1538.3,531.1,1538.3,509z"/>
	<path class="st0" d="M1624.4,530.2h-13.5v40.7h-28.3V447h49.6c23.6,0,42.5,18.9,42.5,42.5c0,15.2-9.2,29-22.8,35.9l26.4,45.5h-30.5
		L1624.4,530.2z M1610.9,505.4h21.2c7.8,0,14.2-6.9,14.2-15.9s-6.4-15.9-14.2-15.9h-21.2V505.4z"/>
	<path class="st0" d="M1683.5,542.8l24.4-14.2c4.4,10.3,12,17.2,26,17.2c13.5,0,16.8-5.3,16.8-10.1c0-7.6-7.1-10.6-25.7-15.8
		c-18.4-5.1-36.5-14-36.5-37.7c0-23.9,20.2-37.7,41.6-37.7c20.4,0,36.3,9.7,45.3,28l-23.9,14c-4.2-8.9-10.1-14.3-21.4-14.3
		c-8.9,0-13.3,4.4-13.3,9.4c0,5.7,3,9.6,22.3,15.4c18.8,5.7,39.8,12.2,39.8,38.4c0,23.9-19.1,38.1-46,38.1
		C1707.1,573.4,1690.4,561,1683.5,542.8z"/>
</g>
</svg>
