<?xml version="1.0" encoding="utf-8"?>
<!-- Generator: Adobe Illustrator 23.0.3, SVG Export Plug-In . SVG Version: 6.00 Build 0)  -->
<svg version="1.1" id="Layer_1" xmlns="http://www.w3.org/2000/svg" xmlns:xlink="http://www.w3.org/1999/xlink" x="0px" y="0px"
	 viewBox="0 0 852.1 719" style="enable-background:new 0 0 852.1 719;" xml:space="preserve">
<style type="text/css">
	.st0{fill:#007C67;}
	.st1{fill:#FFFFFF;}
</style>
<g>
	<polygon class="st0" points="852.1,236.7 426.1,426.4 0,236.7 220.1,138.7 420.4,228 420.4,222.4 226.4,135.9 426.1,46.9 	"/>
</g>
<g>
	<polygon class="st0" points="98.1,290.1 420.4,433.3 420.4,672 98.1,528.8 	"/>
</g>
<g>
	<polygon class="st0" points="753.4,290.1 431.1,433.3 431.1,672 753.4,528.8 	"/>
</g>
<g>
	<path class="st1" d="M333.6,480.9l-46.8-20.8v138.4L245.2,580V441.6l-46.8-20.8v-39l135.2,60V480.9z"/>
</g>
<g>
	<path class="st1" d="M683.5,539.3l-37,16.2V452.3L604.6,546l-4.2,1.8l-41.8-56.9v103.2l-37,16.2V432.9l37-16.2l43.9,59.6l43.9-98.1
		l37-16.2V539.3z"/>
</g>
<ellipse class="st1" cx="420.4" cy="225.2" rx="26.9" ry="15.4"/>
<polygon class="st1" points="420.4,222.4 420.4,228 220.1,138.7 226.4,135.9 "/>
</svg>
