<?xml version="1.0" encoding="utf-8"?>
<!-- Generator: Adobe Illustrator 23.0.3, SVG Export Plug-In . SVG Version: 6.00 Build 0)  -->
<svg version="1.1" id="Layer_1" xmlns="http://www.w3.org/2000/svg" xmlns:xlink="http://www.w3.org/1999/xlink" x="0px" y="0px"
	 viewBox="0 0 130 127" style="enable-background:new 0 0 130 127;" xml:space="preserve">
<style type="text/css">
	.st0{clip-path:url(#SVGID_4_);enable-background:new    ;}
	.st1{opacity:0.1569;clip-path:url(#SVGID_6_);fill:#DDA319;}
	.st2{clip-path:url(#SVGID_6_);fill:#B06328;}
	.st3{clip-path:url(#SVGID_6_);fill:#A35425;}
	.st4{clip-path:url(#SVGID_6_);fill:#C97629;}
	.st5{fill:#F0F0F6;}
	.st6{fill:#D8D8EB;}
	.st7{opacity:0.4941;fill:#FFFFFF;}
	.st8{fill:#DBDBEB;}
	.st9{opacity:0.8118;fill:#FFFFFF;}
</style>
<g>
	<g>
		<defs>
			<path id="SVGID_1_" d="M130,67c0,16-6.3,30.6-16.6,41.4c-3.4,3.5-7.1,6.6-11.3,9.3c-0.2,0.1-0.4,0.3-0.7,0.4
				c-2,1.2-4.1,2.4-6.2,3.4C87.6,125,79,127,70,127c-7.3,0-14.3-1.3-20.8-3.7c-2.2-0.8-4.4-1.8-6.5-2.8c-16.1-8.2-28-23.6-31.6-41.9
				c-0.5-2.3-0.8-4.6-1-7c-0.1-1.5-0.2-3-0.2-4.6c0-2.3,0.1-4.6,0.4-6.9c0.2-1.4,0.4-2.7,0.6-4.1C16.2,28.1,40.6,7,70,7
				c10.9,0,21.1,2.9,29.8,7.9c1.2,0.7,2.4,1.4,3.5,2.2c0.2,0.2,0.5,0.3,0.7,0.5c0,0,0,0,0.1,0c1.9,1.3,3.7,2.7,5.4,4.2
				c3.7,3.2,6.9,6.9,9.7,10.9C126,42.4,130,54.3,130,67z"/>
		</defs>
		<clipPath id="SVGID_2_">
			<use xlink:href="#SVGID_1_"  style="overflow:visible;"/>
		</clipPath>
		<g style="clip-path:url(#SVGID_2_);">
			
				<image style="overflow:visible;" width="501" height="500" xlink:href="EBE77BD1.jpg"  transform="matrix(0.24 0 0 0.24 9.84 7)">
			</image>
		</g>
	</g>
</g>
<g>
	<defs>
		<path id="SVGID_3_" d="M130,67c0,16-6.3,30.6-16.6,41.4c-3.4,3.5-7.1,6.6-11.3,9.3c-0.2,0.1-0.4,0.3-0.7,0.4
			c-2,1.2-4.1,2.4-6.2,3.4C87.6,125,79,127,70,127c-7.3,0-14.3-1.3-20.8-3.7c-2.2-0.8-4.4-1.8-6.5-2.8c-16.1-8.2-28-23.6-31.6-41.9
			c-0.5-2.3-0.8-4.6-1-7c-0.1-1.5-0.2-3-0.2-4.6c0-2.3,0.1-4.6,0.4-6.9c0.2-1.4,0.4-2.7,0.6-4.1C16.2,28.1,40.6,7,70,7
			c10.9,0,21.1,2.9,29.8,7.9c1.2,0.7,2.4,1.4,3.5,2.2c0.2,0.2,0.5,0.3,0.7,0.5c0,0,0,0,0.1,0c1.9,1.3,3.7,2.7,5.4,4.2
			c3.7,3.2,6.9,6.9,9.7,10.9C126,42.4,130,54.3,130,67z"/>
	</defs>
	<clipPath id="SVGID_4_">
		<use xlink:href="#SVGID_3_"  style="overflow:visible;"/>
	</clipPath>
	<g class="st0">
		<g>
			<defs>
				<rect id="SVGID_5_" x="10" y="7" width="120" height="120"/>
			</defs>
			<clipPath id="SVGID_6_">
				<use xlink:href="#SVGID_5_"  style="overflow:visible;"/>
			</clipPath>
			<path class="st1" d="M-3,46C-3,21.7,16.7,2,41,2c24.3,0,44,19.7,44,44c0,9.8-3.2,18.9-8.6,26.2l6.7,7.4l-7.4,6.7l-6.1-6.8
				C61.8,86,51.9,90,41,90C16.7,90-3,70.3-3,46z"/>
			<path class="st2" d="M120,110.5c0,5.2-4.4,9.5-9.5,9.5c-2.7,0-5.2-1.1-7.1-3L72.8,83.7c-1.1-1.1-1.1-2.7,0-3.8l7.1-7.1
				c1.1-1.1,2.7-1.1,3.8,0l33.3,30.8C118.9,105.3,120,108,120,110.5z"/>
			<path class="st3" d="M116.7,103.4l-1.6-1.4c1.4,1.6,2.2,3.8,2.2,6c0,3.5-4.4,4.9-6.8,2.5L81.8,81.8c-1.6-1.6-4.1-1.6-5.7,0
				l-2.7,2.7l29.7,31.9c1.6,1.6,3.8,3,6,3.3c3,0.3,6-0.8,7.9-2.7c1.9-1.9,3-4.9,2.7-7.9C119.7,106.9,118.4,105,116.7,103.4z"/>
			<path class="st4" d="M88.6,84.5c-0.3,0-0.8,0-1.1-0.3l-6.8-6.8c-0.5-0.5-0.5-1.4,0-1.9c0.5-0.5,1.4-0.5,1.9,0l6.8,6.8
				c0.5,0.5,0.5,1.4,0,1.9C89.5,84.5,88.9,84.5,88.6,84.5z"/>
		</g>
	</g>
</g>
<rect x="68.5" y="66.5" transform="matrix(0.7071 -0.7071 0.7071 0.7071 -29.9366 72.272)" class="st5" width="7.6" height="11.5"/>
<path class="st6" d="M75,75l1.4,1.4l2.7-2.7l-8.2-8.2l-5.5,5.5l4.1,4.1C71.2,73.4,73.4,73.4,75,75z"/>
<g>
	<g>
		<defs>
			<path id="SVGID_7_" d="M0,40.9C0,18.3,18.3,0,40.9,0c22.6,0,40.9,18.3,40.9,40.9c0,22.6-18.3,40.9-40.9,40.9
				C18.3,81.8,0,63.5,0,40.9z"/>
		</defs>
		<clipPath id="SVGID_8_">
			<use xlink:href="#SVGID_7_"  style="overflow:visible;"/>
		</clipPath>
		<g style="clip-path:url(#SVGID_8_);">
			
				<image style="overflow:visible;" width="341" height="342" xlink:href="EBE77BD3.jpg"  transform="matrix(0.24 0 0 0.24 0 -0.2)">
			</image>
		</g>
	</g>
</g>
<g>
	<g>
		<defs>
			<path id="SVGID_9_" d="M40.9,8.2c1.1,0,2.1,0.1,3.2,0.2c1.1,0.1,2.1,0.3,3.2,0.5c1.1,0.2,2.1,0.5,3.1,0.8c1,0.3,2,0.7,3,1.1
				c1,0.4,2,0.9,2.9,1.4s1.9,1.1,2.8,1.7c0.9,0.6,1.8,1.2,2.6,1.9s1.6,1.4,2.4,2.2c0.8,0.8,1.5,1.6,2.2,2.4c0.7,0.8,1.3,1.7,1.9,2.6
				c0.6,0.9,1.1,1.8,1.7,2.8c0.5,0.9,1,1.9,1.4,2.9c0.4,1,0.8,2,1.1,3s0.6,2.1,0.8,3.1c0.2,1.1,0.4,2.1,0.5,3.2
				c0.1,1.1,0.2,2.1,0.2,3.2c0,1.1-0.1,2.1-0.2,3.2c-0.1,1.1-0.3,2.1-0.5,3.2c-0.2,1.1-0.5,2.1-0.8,3.1s-0.7,2-1.1,3
				c-0.4,1-0.9,2-1.4,2.9c-0.5,0.9-1.1,1.9-1.7,2.8c-0.6,0.9-1.2,1.8-1.9,2.6c-0.7,0.8-1.4,1.6-2.2,2.4c-0.8,0.8-1.6,1.5-2.4,2.2
				s-1.7,1.3-2.6,1.9c-0.9,0.6-1.8,1.1-2.8,1.7c-0.9,0.5-1.9,1-2.9,1.4c-1,0.4-2,0.8-3,1.1c-1,0.3-2.1,0.6-3.1,0.8
				c-1.1,0.2-2.1,0.4-3.2,0.5c-1.1,0.1-2.1,0.2-3.2,0.2s-2.1-0.1-3.2-0.2c-1.1-0.1-2.1-0.3-3.2-0.5c-1.1-0.2-2.1-0.5-3.1-0.8
				c-1-0.3-2-0.7-3-1.1c-1-0.4-2-0.9-2.9-1.4c-0.9-0.5-1.9-1.1-2.8-1.7c-0.9-0.6-1.8-1.2-2.6-1.9c-0.8-0.7-1.6-1.4-2.4-2.2
				c-0.8-0.8-1.5-1.6-2.2-2.4c-0.7-0.8-1.3-1.7-1.9-2.6c-0.6-0.9-1.1-1.8-1.7-2.8c-0.5-0.9-1-1.9-1.4-2.9c-0.4-1-0.8-2-1.1-3
				c-0.3-1-0.6-2.1-0.8-3.1c-0.2-1.1-0.4-2.1-0.5-3.2c-0.1-1.1-0.2-2.1-0.2-3.2c0-1.1,0.1-2.1,0.2-3.2c0.1-1.1,0.3-2.1,0.5-3.2
				s0.5-2.1,0.8-3.1c0.3-1,0.7-2,1.1-3c0.4-1,0.9-2,1.4-2.9c0.5-0.9,1.1-1.9,1.7-2.8c0.6-0.9,1.2-1.8,1.9-2.6
				c0.7-0.8,1.4-1.6,2.2-2.4c0.8-0.8,1.6-1.5,2.4-2.2c0.8-0.7,1.7-1.3,2.6-1.9c0.9-0.6,1.8-1.1,2.8-1.7s1.9-1,2.9-1.4
				c1-0.4,2-0.8,3-1.1c1-0.3,2.1-0.6,3.1-0.8c1.1-0.2,2.1-0.4,3.2-0.5C38.8,8.2,39.8,8.2,40.9,8.2z"/>
		</defs>
		<clipPath id="SVGID_10_">
			<use xlink:href="#SVGID_9_"  style="overflow:visible;"/>
		</clipPath>
		<g style="clip-path:url(#SVGID_10_);">
			
				<image style="overflow:visible;" width="273" height="274" xlink:href="EBE77BD6.jpg"  transform="matrix(0.24 0 0 0.24 8.16 7.96)">
			</image>
		</g>
	</g>
</g>
<path class="st7" d="M24.8,44.7c1.4-10.4,9.5-18.5,19.9-19.9H45c4.6-0.5,4.9-7.1,0.5-7.9c-2.7-0.5-5.5-0.5-8.2-0.3
	c-10.6,1.6-19.1,10.1-20.5,20.5c-0.5,2.7-0.3,5.7,0.3,8.2c0.8,4.6,7.4,4.1,7.9-0.5C24.8,45,24.8,44.7,24.8,44.7z"/>
<path class="st8" d="M10.9,43.6c0-18,14.7-32.7,32.7-32.7c8.5,0,15.8,3.3,21.8,8.2c-6-6.8-14.7-10.9-24.5-10.9
	c-18,0-32.7,14.7-32.7,32.7c0,9.8,4.4,18.5,10.9,24.5C14.2,59.5,10.9,52.1,10.9,43.6z"/>
<path class="st9" d="M72.5,35c2.8,17.8-9.7,34.2-27.5,37c-8.4,1.3-17.2-1.5-23.9-5.4c7,5.8,16.3,8.5,25.9,6.9
	c17.8-2.8,30-19.7,27.2-37.4c-1.5-9.7-7.2-17.6-14.6-22.5C65.5,18.7,71.2,26.6,72.5,35z"/>
</svg>
