<?xml version="1.0" encoding="utf-8"?>
<!-- Generator: Adobe Illustrator 23.0.3, SVG Export Plug-In . SVG Version: 6.00 Build 0)  -->
<svg version="1.1" id="Layer_1" xmlns="http://www.w3.org/2000/svg" xmlns:xlink="http://www.w3.org/1999/xlink" x="0px" y="0px"
	 viewBox="0 0 1200 917.1" style="enable-background:new 0 0 1200 917.1;" xml:space="preserve">
<style type="text/css">
	.st0{fill:#004539;}
	.st1{enable-background:new    ;}
	.st2{fill:#233862;}
	.st3{fill:#45A895;}
	.st4{fill:#308C7A;}
	.st5{fill:#2A4E96;}
	.st6{fill:#B56F40;}
	.st7{fill:#99592E;}
	.st8{fill:#2C3A64;}
	.st9{fill:#EBF3FA;}
	.st10{fill:#F99746;}
	.st11{fill:#E6A330;}
	.st12{fill:#FFB93E;}
</style>
<g>
	<path class="st0" d="M0,26.2v95.6c114.8,2.1,215.8,60.7,276.3,149.3c7.4,10.8,14.2,22.1,20.4,33.8c25,47.5,39.2,101.7,39.2,159.1
		c0,63.6-17.4,123.2-47.6,174.3c-9.9,16.7-21.1,32.4-33.6,47.1c-12.5,14.7-26.1,28.3-40.8,40.6c-4.1,3.4-8.2,6.8-12.4,10
		c-56,42.8-125.6,68.8-201.3,70.1v95.6c238.8-3.4,431.4-198.1,431.4-437.8S238.8,29.6,0,26.2z"/>
</g>
<g>
	<path d="M542.9,581.5l57.7-98.5H487.8c-6.2,0-11.2-4.9-11.2-10.9V164c0-6,4.9-10.8,11.2-10.9h683.7c6.2,0,11.2,4.9,11.2,10.9v308
		c0,6-5,10.9-11.2,10.9H730.2c-1.6,0-3.1,0.4-4.4,1.1L542.9,581.5z M487.8,155.1c-5.2,0.1-9.2,4-9.2,8.9v308c0,4.9,4.1,8.9,9.2,8.9
		h116.2l-55.9,95.5l176.7-94.1c1.6-0.9,3.5-1.3,5.4-1.3h441.3c5.1,0,9.2-4,9.2-8.9V164c0-4.9-4.1-8.9-9.2-8.9H487.8z"/>
</g>
<g class="st1">
	<g>
		<path d="M512.2,259.2v-0.6l2.5-0.6c1.6-0.4,2.5-1.4,2.5-3v-34.2H512c-1.5,0-2.5,0.4-3.2,1.2c-0.6,0.8-1.3,1.9-2,3.2l-2.2,4.2H504
			l0.3-9.8h34.6l0.2,9.8h-0.6l-2.2-4.2c-0.7-1.4-1.3-2.4-2-3.2c-0.6-0.8-1.7-1.2-3.2-1.2h-5.1V255c0,1.6,0.8,2.6,2.5,3l2.5,0.6v0.6
			H512.2z"/>
	</g>
	<g>
		<path d="M552.2,229.4c2.6,0,4.8,0.5,6.7,1.6c1.8,1.1,3.3,2.5,4.2,4.3c1,1.8,1.5,3.9,1.5,6.2c0,0.4,0,0.9-0.1,1.4
			c0,0.5-0.1,0.9-0.2,1.2h-17.9c0,4.3,0.8,7.4,2.3,9.3s3.7,2.9,6.7,2.9c2,0,3.6-0.3,4.9-1c1.2-0.6,2.4-1.6,3.5-2.8l0.6,0.5
			c-1.2,2.2-2.9,3.9-5,5.2c-2.1,1.2-4.5,1.9-7.4,1.9c-2.8,0-5.4-0.6-7.6-1.8c-2.2-1.2-3.9-3-5.2-5.3c-1.2-2.3-1.9-5-1.9-8.2
			c0-3.3,0.7-6.1,2.2-8.4s3.3-4.1,5.6-5.3C547.3,230,549.7,229.4,552.2,229.4z M552,230.6c-1.2,0-2.2,0.4-3,1.1
			c-0.8,0.7-1.5,1.9-1.9,3.7c-0.5,1.8-0.7,4.3-0.8,7.5h10.3c0.4-4.4,0.2-7.5-0.5-9.4C555.4,231.5,554,230.6,552,230.6z"/>
	</g>
	<g>
		<path d="M566.7,259.2v-0.6l0.7-0.2c1.4-0.5,2.2-1.5,2.2-3v-32.1c0-0.8-0.2-1.4-0.5-1.8c-0.3-0.4-0.9-0.7-1.7-0.9l-0.8-0.2v-0.6
			l11-2.6l0.7,0.5l-0.2,8.4v20.5c0,1.5,0,3,0,4.4c0,1.5,0,2.9,0,4.4c0,0.8,0.2,1.5,0.5,2c0.3,0.5,0.9,0.9,1.6,1.1l0.8,0.2v0.6H566.7
			z"/>
	</g>
	<g>
		<path d="M583.9,259.2v-0.6l0.7-0.2c1.4-0.5,2.2-1.5,2.2-3v-32.1c0-0.8-0.2-1.4-0.5-1.8c-0.3-0.4-0.9-0.7-1.7-0.9l-0.8-0.2v-0.6
			l11-2.6l0.7,0.5l-0.2,8.4v20.5c0,1.5,0,3,0,4.4c0,1.5,0,2.9,0,4.4c0,0.8,0.2,1.5,0.5,2c0.3,0.5,0.9,0.9,1.6,1.1l0.8,0.2v0.6H583.9
			z"/>
	</g>
	<g>
		<path d="M633.1,260.2c-3,0-5.7-0.5-8.1-1.6c-2.3-1.1-4.2-2.8-5.5-5.1c-1.3-2.3-2-5.4-2-9.3v-20.7c0-1.5-0.8-2.5-2.3-3l-1.3-0.4
			v-0.6h16.6v0.6l-1.7,0.5c-1.5,0.4-2.2,1.4-2.2,3v22.2c0,3.7,0.8,6.5,2.3,8.3c1.6,1.8,3.8,2.7,6.7,2.7c3,0,5.5-0.9,7.2-2.8
			c1.8-1.9,2.7-4.5,2.7-8v-22c0-0.8-0.1-1.5-0.4-2.1c-0.3-0.6-0.8-1-1.6-1.2l-1.5-0.4v-0.6h8.4v0.6l-1.6,0.4
			c-0.8,0.2-1.3,0.5-1.5,1.1s-0.4,1.3-0.4,2.1v22c0,2.9-0.6,5.5-1.7,7.7c-1.2,2.2-2.8,3.9-4.9,5S635.9,260.2,633.1,260.2z"/>
	</g>
	<g>
		<path d="M660.9,260.1c-2,0-3.7-0.2-5.3-0.7c-1.6-0.5-3-1-4.3-1.7l0.1-7.1h0.6l2,3.6c0.9,1.6,1.9,2.8,2.9,3.6
			c1.1,0.8,2.4,1.2,4.1,1.2c1.9,0,3.5-0.4,4.7-1.3c1.2-0.9,1.8-2,1.8-3.5c0-1.3-0.4-2.4-1.3-3.2c-0.8-0.8-2.4-1.6-4.7-2.3l-2.5-0.8
			c-2.4-0.7-4.4-1.8-5.8-3.4c-1.4-1.5-2.1-3.4-2.1-5.6c0-2.6,1-4.9,3.1-6.7c2.1-1.8,5.1-2.8,8.9-2.8c1.6,0,3,0.2,4.4,0.5
			c1.4,0.3,2.7,0.9,4,1.5l-0.4,6.5h-0.6l-2.1-3.7c-0.8-1.3-1.5-2.3-2.3-2.8c-0.7-0.5-1.9-0.8-3.3-0.8c-1.4,0-2.6,0.4-3.8,1.1
			c-1.2,0.8-1.8,1.8-1.8,3.2c0,1.4,0.5,2.4,1.5,3.2c1,0.8,2.5,1.5,4.5,2.2l2.7,0.8c2.9,0.9,4.9,2.1,6.2,3.6c1.2,1.5,1.9,3.4,1.9,5.6
			c0,2.9-1.2,5.3-3.5,7C668.3,259.2,665.1,260.1,660.9,260.1z"/>
	</g>
	<g>
		<path d="M697.1,259.2v-0.6l1.8-0.5c1.4-0.4,2.1-1.4,2.1-3v-11.4l-9.9-20.2c-0.4-0.8-0.7-1.4-1-1.8c-0.3-0.4-0.8-0.7-1.4-1
			l-1.1-0.5v-0.6h16.1v0.6l-1.1,0.4c-0.9,0.4-1.4,0.9-1.4,1.5c-0.1,0.6,0.1,1.4,0.5,2.3l7.1,15.7l7.9-16.3c0.3-0.6,0.5-1.3,0.4-2
			c-0.1-0.7-0.5-1.1-1.3-1.3l-0.8-0.3v-0.6h7.2v0.6l-1.1,0.4c-0.8,0.3-1.3,0.7-1.7,1.2c-0.4,0.5-0.7,1.1-1.1,1.9l-8.2,17.3v14.2
			c0,0.8,0.1,1.5,0.5,2c0.3,0.5,0.8,0.9,1.6,1.1l1.9,0.5v0.6H697.1z"/>
	</g>
	<g>
		<path d="M733,260.1c-3,0-5.7-0.6-7.9-1.9c-2.2-1.3-4-3.1-5.2-5.4c-1.2-2.3-1.8-5-1.8-8.2s0.7-5.8,2-8.1s3.1-4,5.3-5.3
			c2.3-1.2,4.8-1.9,7.7-1.9c2.8,0,5.4,0.6,7.6,1.8c2.2,1.2,4,3,5.3,5.3c1.3,2.3,2,5,2,8.2s-0.6,5.9-1.8,8.2
			c-1.2,2.3-2.9,4.1-5.2,5.3C738.7,259.4,736.1,260.1,733,260.1z M733,258.9c1.4,0,2.5-0.4,3.4-1.2c0.8-0.8,1.5-2.2,1.8-4.3
			c0.4-2,0.6-4.9,0.6-8.6c0-3.8-0.2-6.7-0.6-8.7c-0.4-2-1-3.5-1.8-4.3c-0.8-0.8-2-1.2-3.4-1.2c-1.4,0-2.5,0.4-3.4,1.2
			c-0.9,0.8-1.5,2.2-1.9,4.3c-0.4,2-0.6,4.9-0.6,8.7c0,3.7,0.2,6.6,0.6,8.6c0.4,2,1,3.5,1.9,4.3C730.5,258.5,731.6,258.9,733,258.9z
			"/>
	</g>
	<g>
		<path d="M761.2,260.1c-1.6,0-3-0.3-4.3-0.9s-2.3-1.6-3.1-2.9c-0.7-1.3-1.1-3.1-1.1-5.3l0.2-15.4c0-0.9-0.2-1.6-0.5-2
			c-0.3-0.4-0.8-0.7-1.5-0.8l-0.7-0.2v-0.6l10.7-2.1l0.6,0.6l-0.3,8.5v14.5c0,1.3,0.4,2.2,1.1,2.8c0.7,0.6,1.7,0.9,2.8,0.9
			s2.1-0.2,3-0.5c0.9-0.3,1.8-0.8,2.6-1.4l0.2-19.6c0-0.9-0.1-1.6-0.4-2c-0.3-0.4-0.8-0.7-1.6-0.8l-0.6-0.2V232l10.5-2.3l0.6,0.6
			l-0.2,8.5v16.3c0,0.9,0.1,1.6,0.4,2s0.8,0.9,1.6,1.2l0.6,0.2v0.6l-10.5,0.6l-0.5-3.5c-1.3,1.1-2.8,2-4.3,2.7
			S763.3,260.1,761.2,260.1z"/>
	</g>
	<g>
		<path d="M784.4,259.2v-0.6l0.9-0.2c0.8-0.2,1.4-0.6,1.7-1.1c0.3-0.5,0.5-1.1,0.5-1.9v-18.8c0-0.9-0.1-1.5-0.5-2
			c-0.3-0.4-0.9-0.7-1.7-0.9l-0.9-0.2v-0.6l10.3-3.5l0.6,0.6l0.5,5.2v0.5c0.6-1.1,1.3-2.2,2.2-3.1s1.9-1.7,3-2.3
			c1.1-0.6,2.2-0.9,3.3-0.9c1.5,0,2.7,0.4,3.5,1.3c0.8,0.8,1.2,1.9,1.2,3.2c0,1.4-0.4,2.4-1.2,3.2c-0.8,0.7-1.7,1.1-2.8,1.1
			c-1.7,0-3.2-0.8-4.4-2.5l-0.1-0.1c-0.4-0.6-0.9-0.9-1.4-0.9c-0.5-0.1-1,0.2-1.4,0.8c-0.4,0.4-0.7,0.8-1,1.3
			c-0.3,0.5-0.5,1.1-0.8,1.7V255c0,1.6,0.7,2.6,2.1,3l1.9,0.5v0.6H784.4z"/>
	</g>
	<g>
		<path d="M824.1,259.2v-0.6l1.4-0.5c0.7-0.3,1.2-0.7,1.4-1.1c0.3-0.5,0.4-1.1,0.4-1.9v-31.3c0-0.8-0.1-1.4-0.3-1.9
			c-0.2-0.5-0.7-0.8-1.5-1.1l-1.4-0.5v-0.6h28.8l0.4,9.2h-0.6l-2.6-5.6c-0.4-0.7-0.7-1.3-1.1-1.7c-0.4-0.4-1-0.7-1.8-0.7h-10.8v17.4
			h6.4c0.8,0,1.4-0.2,1.8-0.6c0.4-0.4,0.8-1,1.1-1.7l1.2-2.4h0.6v10.8h-0.6l-1.2-2.5c-0.4-0.7-0.7-1.3-1.1-1.7
			c-0.4-0.4-1-0.6-1.8-0.6h-6.4V258h12.1c0.8,0,1.4-0.2,1.9-0.6c0.4-0.4,0.8-1,1.1-1.8l2.5-5.6h0.6l-0.4,9.2H824.1z"/>
	</g>
	<g>
		<path d="M856.8,259.2v-0.6l1.6-0.4c0.9-0.2,1.7-0.5,2.3-0.9c0.6-0.4,1.1-1,1.7-1.8l6.5-9.3l-8.2-13c-0.4-0.6-0.8-1.1-1.1-1.4
			c-0.3-0.3-0.8-0.6-1.5-0.7l-0.8-0.2v-0.6h15.3v0.6l-1,0.2c-1.4,0.4-1.7,1.3-0.8,2.6l4.9,7.6l5.3-7.4c0.4-0.7,0.7-1.3,0.6-1.7
			c0-0.5-0.4-0.8-1.2-1l-1.5-0.4v-0.6h8.8v0.6l-1.4,0.4c-0.9,0.2-1.6,0.6-2,0.9c-0.5,0.4-1,1-1.6,1.8l-6.3,8.5l8.2,12.8
			c1,1.6,2.3,2.6,4,3l1,0.3v0.6h-16.6v-0.6l1-0.2c0.7-0.2,1.1-0.5,1.3-1c0.2-0.5,0.1-1.1-0.3-1.7l-5.3-8.2l-5.7,8.3
			c-0.5,0.6-0.6,1.2-0.5,1.7c0.2,0.5,0.6,0.8,1.2,0.9l1.2,0.3v0.6H856.8z"/>
	</g>
	<g>
		<path d="M890.2,273v-0.6l0.7-0.2c1.5-0.4,2.2-1.4,2.2-2.9v-32.7c0-0.9-0.2-1.5-0.5-2c-0.3-0.4-0.9-0.7-1.7-0.9l-0.8-0.2v-0.6
			l10.2-3.5l0.6,0.6l0.5,1.9c1.3-0.8,2.8-1.4,4.4-1.9c1.6-0.4,3.3-0.7,5-0.7c3.4,0,6.2,1.3,8.2,3.9c2,2.6,3,6.4,3,11.3
			c0,4.8-1.1,8.6-3.3,11.3c-2.2,2.8-5.4,4.1-9.4,4.1c-3.2,0-5.8-0.5-8-1.4v10.4c0,1.6,0.7,2.6,2.2,3l1.1,0.3v0.6H890.2z
			 M906.6,258.3c2,0,3.6-1,4.8-3.1c1.2-2.1,1.8-5.5,1.8-10.4c0-4.8-0.6-8.2-1.7-10.2c-1.1-1.9-2.7-2.9-4.9-2.9
			c-1.5,0-3.1,0.5-4.9,1.4v24.2C903.2,258,904.8,258.3,906.6,258.3z"/>
	</g>
	<g>
		<path d="M940.3,229.4c2.6,0,4.8,0.5,6.7,1.6s3.3,2.5,4.2,4.3c1,1.8,1.5,3.9,1.5,6.2c0,0.4,0,0.9-0.1,1.4c0,0.5-0.1,0.9-0.2,1.2
			h-17.9c0,4.3,0.8,7.4,2.3,9.3s3.7,2.9,6.7,2.9c2,0,3.6-0.3,4.9-1c1.2-0.6,2.4-1.6,3.5-2.8l0.6,0.5c-1.2,2.2-2.9,3.9-5,5.2
			c-2.1,1.2-4.5,1.9-7.4,1.9c-2.8,0-5.4-0.6-7.6-1.8s-3.9-3-5.2-5.3c-1.2-2.3-1.9-5-1.9-8.2c0-3.3,0.7-6.1,2.2-8.4
			c1.4-2.3,3.3-4.1,5.6-5.3C935.4,230,937.8,229.4,940.3,229.4z M940.1,230.6c-1.2,0-2.2,0.4-3,1.1c-0.8,0.7-1.5,1.9-1.9,3.7
			c-0.5,1.8-0.7,4.3-0.8,7.5h10.3c0.4-4.4,0.2-7.5-0.5-9.4C943.5,231.5,942.2,230.6,940.1,230.6z"/>
	</g>
	<g>
		<path d="M955.7,259.2v-0.6l0.9-0.2c0.8-0.2,1.4-0.6,1.7-1.1c0.3-0.5,0.5-1.1,0.5-1.9v-18.8c0-0.9-0.2-1.5-0.5-2
			c-0.3-0.4-0.9-0.7-1.7-0.9l-0.9-0.2v-0.6l10.3-3.5l0.6,0.6l0.5,5.2v0.5c0.6-1.1,1.3-2.2,2.2-3.1c0.9-0.9,1.9-1.7,3-2.3
			c1.1-0.6,2.2-0.9,3.3-0.9c1.5,0,2.7,0.4,3.5,1.3s1.2,1.9,1.2,3.2c0,1.4-0.4,2.4-1.2,3.2c-0.8,0.7-1.7,1.1-2.8,1.1
			c-1.7,0-3.2-0.8-4.4-2.5l-0.1-0.1c-0.4-0.6-0.9-0.9-1.4-0.9c-0.5-0.1-1,0.2-1.4,0.8c-0.4,0.4-0.7,0.8-1,1.3
			c-0.3,0.5-0.5,1.1-0.8,1.7V255c0,1.6,0.7,2.6,2.1,3l1.9,0.5v0.6H955.7z"/>
	</g>
	<g>
		<path d="M982.3,259.2v-0.6l0.8-0.2c0.8-0.2,1.4-0.6,1.7-1.1c0.3-0.5,0.5-1.1,0.5-1.9v-18.8c0-0.8-0.2-1.5-0.5-1.9
			c-0.3-0.4-0.9-0.7-1.7-0.9l-0.8-0.2V233l11-3.5l0.6,0.6l-0.2,8.5v16.8c0,0.8,0.1,1.4,0.5,1.9c0.3,0.5,0.8,0.8,1.6,1.1l0.6,0.2v0.6
			H982.3z M989.4,226.3c-1.4,0-2.5-0.4-3.5-1.3c-0.9-0.9-1.4-2-1.4-3.3c0-1.4,0.5-2.5,1.4-3.3c0.9-0.8,2.1-1.3,3.5-1.3
			c1.4,0,2.5,0.4,3.4,1.3s1.4,1.9,1.4,3.3c0,1.3-0.5,2.4-1.4,3.3C991.9,225.8,990.7,226.3,989.4,226.3z"/>
	</g>
	<g>
		<path d="M1014,229.4c2.6,0,4.8,0.5,6.7,1.6c1.8,1.1,3.3,2.5,4.2,4.3c1,1.8,1.5,3.9,1.5,6.2c0,0.4,0,0.9-0.1,1.4
			c0,0.5-0.1,0.9-0.2,1.2h-17.9c0,4.3,0.8,7.4,2.3,9.3s3.7,2.9,6.7,2.9c2,0,3.6-0.3,4.9-1c1.2-0.6,2.4-1.6,3.5-2.8l0.6,0.5
			c-1.2,2.2-2.9,3.9-5,5.2s-4.5,1.9-7.4,1.9c-2.8,0-5.4-0.6-7.6-1.8c-2.2-1.2-3.9-3-5.2-5.3c-1.2-2.3-1.9-5-1.9-8.2
			c0-3.3,0.7-6.1,2.2-8.4c1.4-2.3,3.3-4.1,5.6-5.3C1009.2,230,1011.5,229.4,1014,229.4z M1013.8,230.6c-1.2,0-2.2,0.4-3,1.1
			c-0.8,0.7-1.5,1.9-1.9,3.7c-0.5,1.8-0.7,4.3-0.8,7.5h10.3c0.4-4.4,0.2-7.5-0.5-9.4C1017.3,231.5,1015.9,230.6,1013.8,230.6z"/>
	</g>
	<g>
		<path d="M1029.4,259.2v-0.6l0.8-0.2c1.4-0.4,2.1-1.4,2.1-2.9v-18.8c0-0.9-0.1-1.5-0.4-2c-0.3-0.4-0.8-0.7-1.6-0.9l-0.9-0.2v-0.6
			l10.3-3.5l0.6,0.6l0.5,3.6c1.4-1.2,3-2.3,4.7-3.1c1.8-0.8,3.5-1.2,5.2-1.2c2.6,0,4.7,0.7,6.1,2.2c1.4,1.4,2.1,3.6,2.1,6.6v17.3
			c0,1.6,0.8,2.5,2.3,2.9l0.5,0.2v0.6h-14.2v-0.6l0.8-0.2c1.4-0.4,2.1-1.4,2.1-2.9v-19.2c0-2.6-1.3-3.8-3.8-3.8
			c-1.8,0-3.7,0.9-5.8,2.6v20.4c0,1.6,0.7,2.5,2.1,2.9l0.5,0.2v0.6H1029.4z"/>
	</g>
	<g>
		<path d="M1079,260.1c-2.7,0-5.2-0.6-7.4-1.8c-2.2-1.2-4-2.9-5.3-5.2c-1.3-2.3-2-5-2-8.3c0-3.2,0.7-6,2.1-8.3
			c1.4-2.3,3.3-4.1,5.7-5.3c2.4-1.2,5-1.8,7.8-1.8c2.3,0,4.3,0.4,5.9,1.1c1.6,0.8,2.8,1.8,3.7,3c0.8,1.2,1.3,2.5,1.3,3.8
			c0,1.1-0.3,2-1,2.6c-0.7,0.6-1.6,0.9-2.6,0.9c-1.2,0-2.1-0.4-2.8-1.3c-0.7-0.8-1.1-1.9-1.3-3.3c0-0.9,0-1.6,0.1-2.3
			c0.1-0.6,0.1-1.3,0-1.9c-0.2-0.7-0.4-1.1-0.8-1.4c-0.3-0.2-0.8-0.3-1.4-0.3c-2.4,0-4.3,1.1-5.7,3.2c-1.3,2.1-2,5.5-2,10.1
			c0,4,0.8,7.1,2.3,9.3c1.5,2.1,3.8,3.2,6.9,3.2c1.9,0,3.4-0.3,4.6-1c1.2-0.7,2.3-1.7,3.4-3.1l0.6,0.5c-1,2.4-2.5,4.2-4.6,5.5
			C1084.3,259.4,1081.8,260.1,1079,260.1z"/>
	</g>
	<g>
		<path d="M1108.5,229.4c2.6,0,4.8,0.5,6.7,1.6s3.3,2.5,4.2,4.3c1,1.8,1.5,3.9,1.5,6.2c0,0.4,0,0.9-0.1,1.4c0,0.5-0.1,0.9-0.2,1.2
			h-17.9c0,4.3,0.8,7.4,2.3,9.3s3.7,2.9,6.7,2.9c2,0,3.6-0.3,4.9-1c1.2-0.6,2.4-1.6,3.5-2.8l0.6,0.5c-1.2,2.2-2.9,3.9-5,5.2
			s-4.5,1.9-7.4,1.9c-2.8,0-5.4-0.6-7.6-1.8s-3.9-3-5.2-5.3c-1.2-2.3-1.9-5-1.9-8.2c0-3.3,0.7-6.1,2.2-8.4c1.4-2.3,3.3-4.1,5.6-5.3
			C1103.6,230,1106,229.4,1108.5,229.4z M1108.3,230.6c-1.2,0-2.2,0.4-3,1.1c-0.8,0.7-1.5,1.9-1.9,3.7c-0.5,1.8-0.7,4.3-0.8,7.5
			h10.3c0.4-4.4,0.2-7.5-0.5-9.4C1111.7,231.5,1110.3,230.6,1108.3,230.6z"/>
	</g>
</g>
<g class="st1">
	<g>
		<path d="M512.8,332.1c-2.3,0-4.3-0.7-5.9-2c-1.6-1.3-2.4-3.2-2.4-5.7c0-1.9,1-3.6,2.9-5.2s4.9-2.8,9.1-3.6
			c0.6-0.1,1.4-0.3,2.2-0.4c0.8-0.1,1.6-0.3,2.5-0.5V310c0-2.7-0.3-4.6-1-5.7c-0.7-1.1-1.7-1.7-3.1-1.7c-1,0-1.7,0.3-2.3,0.9
			c-0.6,0.6-0.9,1.7-1.1,3.2l-0.1,0.7c-0.1,1.7-0.5,3-1.3,3.8c-0.8,0.8-1.7,1.2-2.8,1.2c-1,0-1.9-0.3-2.6-1c-0.7-0.6-1-1.5-1-2.6
			c0-1.6,0.6-3,1.7-4.1c1.1-1.1,2.7-2,4.5-2.5c1.9-0.6,3.9-0.8,6.1-0.8c3.6,0,6.3,0.9,8.3,2.6c1.9,1.7,2.9,4.6,2.9,8.5v13.3
			c0,1.8,0.8,2.7,2.5,2.7h1.3l0.5,0.5c-0.8,1-1.6,1.7-2.5,2.2c-0.9,0.5-2.2,0.8-3.8,0.8c-1.8,0-3.2-0.4-4.2-1.2
			c-1-0.8-1.7-1.9-2-3.3c-1.2,1.3-2.4,2.4-3.7,3.3S514.8,332.1,512.8,332.1z M516.4,328.4c0.8,0,1.6-0.2,2.3-0.6
			c0.7-0.4,1.5-1,2.5-1.8V316c-0.4,0.1-0.8,0.2-1.2,0.2c-0.4,0.1-0.9,0.2-1.4,0.2c-1.8,0.5-3.3,1.3-4.4,2.4
			c-1.1,1.1-1.7,2.7-1.7,4.6c0,1.6,0.4,2.9,1.1,3.7C514.4,328,515.3,328.4,516.4,328.4z"/>
	</g>
	<g>
		<path d="M546.5,332.1c-2.6,0-4.6-0.6-6-1.9c-1.4-1.3-2.1-3.3-2.1-6.1v-20.5h-4.1v-0.6l1.4-0.2c1.2-0.3,2.3-0.7,3.2-1.2
			c0.9-0.5,1.8-1.2,2.7-2.1l4.9-5.5h0.6l-0.2,8.4h6.7v1.2h-6.8v21.6c0,1.4,0.3,2.5,0.9,3.2c0.6,0.7,1.4,1.1,2.4,1.1
			c0.8,0,1.6-0.2,2.2-0.6c0.6-0.4,1.3-1,1.9-1.7l0.6,0.6c-0.8,1.4-1.9,2.4-3.3,3.2C550.2,331.7,548.5,332.1,546.5,332.1z"/>
	</g>
	<g>
		<path d="M577.5,331.2v-0.6l2.5-0.6c1.6-0.4,2.5-1.4,2.5-3v-34.2h-5.1c-1.5,0-2.5,0.4-3.2,1.2c-0.6,0.8-1.3,1.9-2,3.2l-2.2,4.2
			h-0.6l0.3-9.8h34.6l0.2,9.8h-0.6l-2.2-4.2c-0.7-1.4-1.3-2.4-2-3.2c-0.6-0.8-1.7-1.2-3.2-1.2h-5.1V327c0,1.6,0.8,2.6,2.5,3l2.5,0.6
			v0.6H577.5z"/>
	</g>
	<g>
		<path d="M617.5,301.4c2.6,0,4.8,0.5,6.7,1.6s3.3,2.5,4.2,4.3c1,1.8,1.5,3.9,1.5,6.2c0,0.4,0,0.9-0.1,1.4c0,0.5-0.1,0.9-0.2,1.2
			h-17.9c0,4.3,0.8,7.4,2.3,9.3s3.7,2.9,6.7,2.9c2,0,3.6-0.3,4.9-1c1.2-0.6,2.4-1.6,3.5-2.8l0.6,0.5c-1.2,2.2-2.9,3.9-5,5.2
			c-2.1,1.2-4.5,1.9-7.4,1.9c-2.8,0-5.4-0.6-7.6-1.8s-3.9-3-5.2-5.3c-1.2-2.3-1.9-5-1.9-8.2c0-3.3,0.7-6.1,2.2-8.4
			c1.4-2.3,3.3-4.1,5.6-5.3C612.6,302,615,301.4,617.5,301.4z M617.3,302.6c-1.2,0-2.2,0.4-3,1.1c-0.8,0.7-1.5,1.9-1.9,3.7
			c-0.5,1.8-0.7,4.3-0.8,7.5h10.3c0.4-4.4,0.2-7.5-0.5-9.4C620.7,303.5,619.3,302.6,617.3,302.6z"/>
	</g>
	<g>
		<path d="M647.7,332.1c-2.7,0-5.2-0.6-7.4-1.8c-2.2-1.2-4-2.9-5.3-5.2c-1.3-2.3-2-5-2-8.3c0-3.2,0.7-6,2.1-8.3
			c1.4-2.3,3.3-4.1,5.7-5.3c2.4-1.2,5-1.8,7.8-1.8c2.3,0,4.3,0.4,5.9,1.1c1.6,0.8,2.8,1.8,3.7,3c0.8,1.2,1.3,2.5,1.3,3.8
			c0,1.1-0.3,2-1,2.6s-1.6,0.9-2.6,0.9c-1.2,0-2.1-0.4-2.8-1.3c-0.7-0.8-1.1-1.9-1.3-3.3c0-0.9,0-1.6,0.1-2.3c0.1-0.6,0.1-1.3,0-1.9
			c-0.2-0.7-0.4-1.1-0.8-1.4c-0.3-0.2-0.8-0.3-1.4-0.3c-2.4,0-4.3,1.1-5.7,3.2c-1.3,2.1-2,5.5-2,10.1c0,4,0.8,7.1,2.3,9.3
			c1.5,2.1,3.8,3.2,6.9,3.2c1.9,0,3.4-0.3,4.6-1s2.3-1.7,3.4-3.1l0.6,0.5c-1,2.4-2.5,4.2-4.6,5.5C653,331.4,650.6,332.1,647.7,332.1
			z"/>
	</g>
	<g>
		<path d="M661.4,331.2v-0.6l0.7-0.2c1.4-0.5,2.2-1.5,2.2-3v-32.1c0-0.8-0.1-1.5-0.4-1.9c-0.3-0.4-0.8-0.7-1.6-0.9l-0.9-0.2v-0.6
			l10.6-2.6l1,0.5l-0.2,8.5v7.5c1.4-1.2,2.9-2.2,4.5-3c1.6-0.8,3.4-1.2,5.4-1.2c2.6,0,4.7,0.7,6.2,2.2c1.5,1.5,2.3,3.8,2.3,6.8v16.9
			c0,0.8,0.2,1.4,0.5,1.9s0.9,0.8,1.7,1.1l0.5,0.2v0.6h-14v-0.6l0.7-0.2c1.4-0.5,2.2-1.5,2.2-3.1v-18.9c0-1.6-0.3-2.7-0.8-3.3
			c-0.5-0.6-1.5-0.9-2.9-0.9c-0.9,0-1.8,0.2-2.9,0.5c-1,0.3-2.1,0.9-3.2,1.8v20.9c0,1.6,0.7,2.6,2.2,3l0.5,0.1v0.6H661.4z"/>
	</g>
	<g>
		<path d="M709.1,331.2v-0.6l1.2-0.4c1.4-0.4,2-1.6,2-3.4V296c0-0.8-0.1-1.4-0.3-1.9c-0.2-0.5-0.7-0.9-1.4-1.2l-1.6-0.7v-0.6h11.6
			l11.1,29.1l10.4-29.1h11.8v0.6l-1,0.4c-0.8,0.3-1.3,0.7-1.6,1.2c-0.3,0.5-0.4,1.2-0.4,2V327c0,0.8,0.1,1.4,0.3,1.9
			c0.2,0.4,0.7,0.8,1.4,1.1l1.2,0.5v0.6h-14.9v-0.6l1.3-0.5c0.8-0.3,1.2-0.7,1.4-1.1s0.3-1.1,0.3-1.9v-13.5l0.1-17.2l-12.5,34.8h-3
			l-13.1-34.4l0.2,14.9v15.1c0,0.9,0.1,1.6,0.4,2.1s0.8,0.9,1.5,1.2l1.3,0.4v0.6H709.1z"/>
	</g>
	<g>
		<path d="M770.1,301.4c2.6,0,4.8,0.5,6.7,1.6c1.8,1.1,3.3,2.5,4.2,4.3c1,1.8,1.5,3.9,1.5,6.2c0,0.4,0,0.9-0.1,1.4
			c0,0.5-0.1,0.9-0.2,1.2h-17.9c0,4.3,0.8,7.4,2.3,9.3s3.7,2.9,6.7,2.9c2,0,3.6-0.3,4.9-1c1.2-0.6,2.4-1.6,3.5-2.8l0.6,0.5
			c-1.2,2.2-2.9,3.9-5,5.2s-4.5,1.9-7.4,1.9c-2.8,0-5.4-0.6-7.6-1.8c-2.2-1.2-3.9-3-5.2-5.3c-1.2-2.3-1.9-5-1.9-8.2
			c0-3.3,0.7-6.1,2.2-8.4c1.4-2.3,3.3-4.1,5.6-5.3C765.3,302,767.7,301.4,770.1,301.4z M770,302.6c-1.2,0-2.2,0.4-3,1.1
			c-0.8,0.7-1.5,1.9-1.9,3.7c-0.5,1.8-0.7,4.3-0.8,7.5h10.3c0.4-4.4,0.2-7.5-0.5-9.4C773.4,303.5,772,302.6,770,302.6z"/>
	</g>
	<g>
		<path d="M785.5,331.2v-0.6l0.8-0.2c1.4-0.4,2.1-1.4,2.1-2.9v-18.8c0-0.9-0.1-1.5-0.4-2c-0.3-0.4-0.8-0.7-1.6-0.9l-0.9-0.2v-0.6
			l10.3-3.5l0.6,0.6l0.5,3.6c1.4-1.2,3-2.3,4.7-3.1c1.8-0.8,3.5-1.2,5.2-1.2c2.6,0,4.7,0.7,6.1,2.2c1.4,1.4,2.1,3.6,2.1,6.6v17.3
			c0,1.6,0.8,2.5,2.3,2.9l0.5,0.2v0.6h-14.2v-0.6l0.8-0.2c1.4-0.4,2.1-1.4,2.1-2.9v-19.2c0-2.6-1.3-3.8-3.8-3.8
			c-1.8,0-3.7,0.9-5.8,2.6v20.4c0,1.6,0.7,2.5,2.1,2.9l0.5,0.2v0.6H785.5z"/>
	</g>
	<g>
		<path d="M831.3,332.1c-2.6,0-4.6-0.6-6-1.9c-1.4-1.3-2.1-3.3-2.1-6.1v-20.5h-4.1v-0.6l1.4-0.2c1.2-0.3,2.3-0.7,3.2-1.2
			c0.9-0.5,1.8-1.2,2.7-2.1l4.9-5.5h0.6l-0.2,8.4h6.7v1.2h-6.8v21.6c0,1.4,0.3,2.5,0.9,3.2c0.6,0.7,1.4,1.1,2.4,1.1
			c0.8,0,1.6-0.2,2.2-0.6c0.6-0.4,1.3-1,1.9-1.7l0.6,0.6c-0.8,1.4-1.9,2.4-3.3,3.2C835,331.7,833.3,332.1,831.3,332.1z"/>
	</g>
	<g>
		<path d="M856.6,332.1c-3,0-5.7-0.6-7.9-1.9c-2.2-1.3-4-3.1-5.2-5.4c-1.2-2.3-1.8-5-1.8-8.2s0.6-5.8,2-8.1c1.3-2.3,3.1-4,5.3-5.3
			c2.3-1.2,4.8-1.9,7.7-1.9s5.4,0.6,7.6,1.8c2.2,1.2,4,3,5.3,5.3c1.3,2.3,2,5,2,8.2s-0.6,5.9-1.8,8.2s-2.9,4.1-5.2,5.3
			C862.3,331.4,859.6,332.1,856.6,332.1z M856.6,330.9c1.4,0,2.5-0.4,3.4-1.2c0.8-0.8,1.5-2.2,1.8-4.3c0.4-2,0.6-4.9,0.6-8.6
			c0-3.8-0.2-6.7-0.6-8.7c-0.4-2-1-3.5-1.8-4.3c-0.8-0.8-2-1.2-3.4-1.2s-2.5,0.4-3.4,1.2c-0.9,0.8-1.5,2.2-1.9,4.3
			c-0.4,2-0.6,4.9-0.6,8.7c0,3.7,0.2,6.6,0.6,8.6c0.4,2,1,3.5,1.9,4.3C854.1,330.5,855.2,330.9,856.6,330.9z"/>
	</g>
	<g>
		<path d="M874.1,331.2v-0.6l0.9-0.2c0.8-0.2,1.4-0.6,1.7-1.1c0.3-0.5,0.5-1.1,0.5-1.9v-18.8c0-0.9-0.1-1.5-0.5-2
			c-0.3-0.4-0.9-0.7-1.7-0.9l-0.9-0.2v-0.6l10.3-3.5l0.6,0.6l0.5,5.2v0.5c0.6-1.1,1.3-2.2,2.2-3.1s1.9-1.7,3-2.3
			c1.1-0.6,2.2-0.9,3.3-0.9c1.5,0,2.7,0.4,3.5,1.3c0.8,0.8,1.2,1.9,1.2,3.2c0,1.4-0.4,2.4-1.2,3.2c-0.8,0.7-1.7,1.1-2.8,1.1
			c-1.7,0-3.2-0.8-4.4-2.5l-0.1-0.1c-0.4-0.6-0.9-0.9-1.4-0.9c-0.5-0.1-1,0.2-1.4,0.8c-0.4,0.4-0.7,0.8-1,1.3
			c-0.3,0.5-0.5,1.1-0.8,1.7V327c0,1.6,0.7,2.6,2.1,3l1.9,0.5v0.6H874.1z"/>
	</g>
	<g>
		<path d="M910.4,332.1c-2,0-3.7-0.2-5.3-0.7c-1.6-0.5-3-1-4.3-1.7l0.1-7.1h0.6l2,3.6c0.9,1.6,1.9,2.8,2.9,3.6
			c1.1,0.8,2.4,1.2,4.1,1.2c1.9,0,3.5-0.4,4.7-1.3c1.2-0.9,1.8-2,1.8-3.5c0-1.3-0.4-2.4-1.3-3.2c-0.8-0.8-2.4-1.6-4.7-2.3l-2.5-0.8
			c-2.4-0.7-4.4-1.8-5.8-3.4c-1.4-1.5-2.1-3.4-2.1-5.6c0-2.6,1-4.9,3.1-6.7c2.1-1.8,5.1-2.8,8.9-2.8c1.6,0,3,0.2,4.4,0.5
			c1.4,0.3,2.7,0.9,4,1.5l-0.4,6.5h-0.6l-2.1-3.7c-0.8-1.3-1.5-2.3-2.3-2.8c-0.7-0.5-1.9-0.8-3.3-0.8c-1.4,0-2.6,0.4-3.8,1.1
			c-1.2,0.8-1.8,1.8-1.8,3.2c0,1.4,0.5,2.4,1.5,3.2c1,0.8,2.5,1.5,4.5,2.2l2.7,0.8c2.9,0.9,4.9,2.1,6.2,3.6c1.2,1.5,1.9,3.4,1.9,5.6
			c0,2.9-1.2,5.3-3.5,7C917.8,331.2,914.6,332.1,910.4,332.1z"/>
	</g>
	<g>
		<path d="M933.2,332.1c-1.4,0-2.7-0.5-3.7-1.5c-1-1-1.5-2.2-1.5-3.6c0-1.4,0.5-2.6,1.5-3.7c1-1,2.2-1.6,3.7-1.6
			c1.4,0,2.7,0.5,3.7,1.6c1,1,1.5,2.3,1.5,3.7c0,1.4-0.5,2.6-1.5,3.6C935.8,331.6,934.6,332.1,933.2,332.1z"/>
	</g>
</g>
<g>
	<g>
		<g>
			<path class="st2" d="M189.1,735.9c0,0,0-7.6,1.1-10.1s5-12.7,5-12.7h15.4c0,0,2.9,9.3,3.1,12.4c0.2,3.1,0,10.4,0,10.4
				L189.1,735.9L189.1,735.9z"/>
		</g>
		<g>
			<path class="st2" d="M287.1,735.9c0,0,0-7.6-1.1-10.1s-5-12.7-5-12.7h-15.4c0,0-2.9,9.3-3.1,12.4c-0.2,3.1,0,10.4,0,10.4
				L287.1,735.9L287.1,735.9z"/>
		</g>
		<g>
			<path class="st3" d="M191,474.2c0,0,2.7,82.5-1.3,129.5c-4,47.1,0,112.5,0,112.5s12.9,7.1,26.9,0c0,0,15.4-90.9,15.3-112.5
				c-0.1-23,16.7-125.9,16.7-125.9L191,474.2z"/>
		</g>
		<g>
			<path class="st3" d="M286.5,716.3c0,0-12.9,7.1-26.9,0c0,0-15.4-90.9-15.3-112.5c0-9.7-2.9-33.7-6.4-58.2
				c-4.7-33.4-10.3-67.8-10.3-67.8l57.5-10.4c0,0-2.6,89.3,1.4,136.3C290.6,650.8,286.5,716.3,286.5,716.3z"/>
		</g>
		<g>
			<path class="st4" d="M244.3,603.8c0-9.7-2.9-33.7-6.4-58.2c3.6-14.6,12.3-28.7,12.3-28.7C261.3,547.9,244.3,603.8,244.3,603.8z"
				/>
		</g>
	</g>
	<g>
		<path class="st5" d="M194.8,332.4c0,0-12.7-0.9-20.2,1.5c-7.5,2.5-57.4-40.4-68.5-38.7c0,0-9.9,4.8-10.1,16.1
			c0,0,39.4,54.2,65,68.1c25.5,14,27.3,52.6,27.3,52.6l14.2-10.7L194.8,332.4z"/>
	</g>
	<g>
		<path class="st6" d="M91.4,241.6c0.3,0.6,26.4,57.8,26.4,57.8s-13.3,14.2-21.8,11.9l-15.7-70.4L91.4,241.6z"/>
	</g>
	<g>
		<path class="st6" d="M91.4,241.6c0,0-0.1-9.2-1.2-11.7c-1.5-3.6-1.1-7.9-5.9-7.1s-10.1,4.3-10.2,5.9c-0.2,2.1,1.2,9.5,2.9,11.2
			c1.6,1.7,4.7,4.3,4.7,4.3L91.4,241.6z"/>
	</g>
	<g>
		<path class="st6" d="M91.4,241.6c0,0,2.3-5.6,3.5-7.2s-4.5-10.3-5-10.5c0,0-2,0.9,0.2,5c1.4,2.6-0.6,4.7-0.6,4.7L91.4,241.6z"/>
	</g>
	<g>
		<path class="st5" d="M225.9,327c0,0,11-6.4,18.9-7.4s34.2-61.3,44.9-64.5c0,0,11,0,16.1,10.1c0,0-12.1,65.9-29,89.6
			c-17,23.7-3.3,61.4-3.3,61.4l-15.9-5.6L225.9,327z"/>
	</g>
	<g>
		<path class="st2" d="M194,317.5c0,0-18.5,2.5-21-8s-19.1-15.4-16.2-24.7c3.5-11.4-3.3-20.5,2.2-28.8c6.1-9.1,16.3-6.7,20.5-12.1
			s12.5-11.3,22.5-7.4s16.3-0.4,23.3,3.9c7.6,4.7,6.5,12.6,12.7,15.7c5.6,2.8,5.5,13.3,2.8,22.3c-1.9,6.5,6,10.8-4.6,19.8
			c-4.4,3.8-2,10.7-16.8,14.7C212.7,314.6,197.4,314.2,194,317.5z"/>
	</g>
	<g>
		<path class="st6" d="M192.8,308c0,0,2.5,16.6,1.8,24.4L180,347.3l64.8-2.2l-18.9-18c0,0-8.6-21.3-7.8-30
			C219,288.4,192.8,308,192.8,308z"/>
	</g>
	<g>
		<path class="st7" d="M193.1,310.3c0,0,7.2,11.1,16.6,9.1c9.3-2,9.5-13,9.5-13L193.1,310.3z"/>
	</g>
	<g>
		<path class="st6" d="M207.7,315c-6.8,1.1-21-5.6-23.1-16.8l-3.2-17.5c-0.8-4.1,1.5-8,5-8.6l26-4.8c3.5-0.6,7,2.2,7.7,6.3l3.1,16.5
			C225.3,301.8,215.6,313.7,207.7,315z"/>
	</g>
	<g>
		<path class="st5" d="M285.3,470.1c0,0-24.2,9.5-47,13.7c-10,1.8-21,2.8-29.9,3.2c-9.8,0.5-16.9,0.4-16.9,0.4s-5,1.4-6.6-24.2
			c-1.2-19.5-1.4-29.5-5.6-47c-2.3-9.6-4.8-22.5-9.8-30.4c-11.1-17.8,1.8-42.9,6.2-45.8c0,0,6.6-3.9,18.9-7.5
			c0,0.2,9.3,9.5,18.1,9.1c5-3.1,8.8-5.7,13.2-14.6c7.6-0.5,15.9-0.5,25,0.2c0,0,1.6,3.8,17.7,71.5
			C275,425.5,292.5,468.8,285.3,470.1z"/>
	</g>
	<g>
		<path class="st2" d="M182.6,288.2c0,0,2.2-15.8,18.1-16.4s17.9,2.4,20.2,6c2.4,3.5,2.2-14.9,2.2-14.9l-19.3-2
			c0,0-20.9,6.9-22.5,10.6c-1.7,3.8-1.2,4-1.2,4L182.6,288.2z"/>
	</g>
	<g>
		<g>
			<path class="st8" d="M194.6,296.7c-2.7,0.5-8.1,0.9-9.9-3.6c-0.5-1.4-0.5-2.7,0.1-3.8c0.7-1.2,2-2.1,3.6-2.4l8.2-1.5
				c1.6-0.3,2.7,0,3.5,0.7c1.3,1.3,0.9,3.7,0.7,4.7c-0.7,3.3-2.2,5-4.7,5.5C195.9,296.4,195.4,296.5,194.6,296.7z M188.4,287.5
				c-1.5,0.3-2.6,1-3.2,2.1c-0.5,1-0.5,2.1-0.1,3.3c0.9,2.3,3,3.5,6.2,3.5c2.4,0,4.6-0.6,4.6-0.6l0,0c2.3-0.4,3.6-2,4.3-5.1
				c0.1-0.7,0.5-3-0.6-4.2c-0.6-0.6-1.6-0.8-3-0.6L188.4,287.5z"/>
		</g>
	</g>
	<g>
		<g>
			<path class="st8" d="M213.5,293.2c-0.8,0.2-1.4,0.2-1.5,0.2c-2.5,0.5-4.5-0.6-6.4-3.5c-0.5-0.8-1.7-2.9-1-4.6
				c0.4-1,1.4-1.6,3-1.9l8.2-1.5c1.6-0.3,3.2,0,4.2,0.9c1,0.8,1.5,2,1.4,3.5C221.4,291.1,216.2,292.7,213.5,293.2z M207.7,283.9
				c-1.4,0.3-2.2,0.8-2.6,1.6c-0.6,1.5,0.6,3.5,1,4.1c1.7,2.6,3.6,3.6,5.8,3.2l0,0c0,0,2.3-0.2,4.5-1.1c2.9-1.2,4.4-3,4.5-5.5
				c0-1.3-0.4-2.3-1.2-3c-0.9-0.8-2.3-1.1-3.8-0.8L207.7,283.9z"/>
		</g>
	</g>
	<g>
		<g>
			<path class="st8" d="M199.9,288.7c-0.1,0-0.3,0-0.3-0.1c-0.1-0.1-0.1-0.4,0.1-0.5c0.1-0.1,3.1-2.1,6.2-1.1
				c0.2,0.1,0.3,0.2,0.2,0.4c-0.1,0.2-0.2,0.3-0.4,0.2c-2.8-0.9-5.6,1-5.6,1.1C199.9,288.7,199.9,288.7,199.9,288.7z"/>
		</g>
	</g>
	<g>
		<path class="st9" d="M198.6,304.6c0,0,5.2-1,6.6-1.2c1.4-0.3,6.8-1.3,6.8-1.3s-1.9,5.2-5.9,5.8
			C202.1,308.6,198.6,304.6,198.6,304.6z"/>
	</g>
	<g>
		<path class="st6" d="M279.7,200.4c0,0.6,1.3,63.6,1.3,63.6s18.1,7.1,24.8,1.3l-16.4-70.2L279.7,200.4z"/>
	</g>
	<g>
		<path class="st6" d="M279.7,200.4c0,0-3.9-8.3-4-11c-0.2-3.9-2.4-7.6,2.2-9c4.6-1.3,11-0.5,11.8,0.9c1.1,1.8,3,9.1,2.3,11.3
			c-0.7,2.2-2.3,5.9-2.3,5.9L279.7,200.4z"/>
	</g>
	<g>
		<path class="st6" d="M279.7,200.4c0,0-4.5-4.1-6.3-5s-0.4-11.2,0-11.7c0,0,2.2,0,2,4.6c-0.1,3,2.5,3.9,2.5,3.9L279.7,200.4z"/>
	</g>
	<g>
		<g>
			<path class="st10" d="M50.7,272.1l-20.4-39.8c-0.8-1.6-0.2-3.5,1.4-4.3l22.8-11.7c1.6-0.8,3.5-0.2,4.3,1.4l20.3,39.9
				c0.8,1.6,0.2,3.5-1.4,4.3l-22.8,11.7C53.4,274.3,51.5,273.6,50.7,272.1z"/>
		</g>
		<g>
			<g>
				<g>
					<g>
						<path class="st11" d="M102.2,237.3c-0.3-0.7-0.4-1.4-0.3-2c0.3-1.4,1.9-2.7,4.5-2.2c1.7,0.3,4,1.9,6.9,4
							c5.1,3.5,12,8.3,16.4,6.7c3.2-1.2,5.1-3.7,4.6-6.2c-0.4-2.4-3.3-5.1-10-5.1c-0.8,0-1.4-0.6-1.4-1.4s0.6-1.4,1.4-1.4
							c8.5,0,12.2,3.8,12.9,7.4c0.7,3.9-1.9,7.7-6.5,9.4c-5.8,2.2-13.2-2.9-19.1-7c-2.3-1.6-4.7-3.3-5.8-3.5c-0.8-0.1-1.1,0-1.2,0.1
							c0,0,0.2,0.3,0.8,0.5c0.8,0.2,1.2,1,1,1.8s-1,1.2-1.8,1C103.4,238.8,102.6,238.1,102.2,237.3z"/>
					</g>
				</g>
				<g>
					<g>
						<path class="st11" d="M88.9,211.3c0.3,0.7,0.9,1.1,1.5,1.4c1.3,0.6,3.3,0.1,4.4-2.3c0.7-1.5,0.8-4.4,0.8-7.9
							c0.1-6.2,0.3-14.6,4.2-17.2c2.9-1.9,6-2,7.8-0.1c1.7,1.7,2.2,5.7-1.7,11.1c-0.5,0.6-0.3,1.5,0.3,2c0.6,0.5,1.5,0.3,2-0.3
							c5-6.9,4-12.1,1.5-14.8c-2.7-2.9-7.3-3-11.4-0.3c-5.2,3.4-5.4,12.4-5.5,19.6c-0.1,2.8-0.1,5.8-0.6,6.8
							c-0.3,0.7-0.7,0.9-0.7,0.9s-0.1-0.3,0.1-0.9c0.3-0.7-0.1-1.6-0.9-1.8c-0.7-0.3-1.6,0.1-1.8,0.9
							C88.3,209.4,88.4,210.5,88.9,211.3z"/>
					</g>
				</g>
			</g>
			<g>
				<path class="st11" d="M76.5,238l-3.5-6.8c0.7,1.3,15.9-6.2,15.2-7.5l3.5,6.8C90.9,228.9,75.7,236.4,76.5,238z"/>
			</g>
			<g>
				<path class="st12" d="M141,224.5c-23.3,11.9-46.5,13.3-51.7,3.1c-5.2-10.2,9.4-28.2,32.7-40.2
					C125.2,193.6,136.3,215.4,141,224.5z"/>
			</g>
			<g>
				<path class="st12" d="M60.2,220.7c3.6-1.8,10.3,4.3,15.1,13.7c4.8,9.4,5.8,18.5,2.2,20.3C74.7,248.9,64.4,229,60.2,220.7z"/>
			</g>
			<g>
				<path class="st11" d="M139.5,226.1l-19.7-38.5c-0.5-0.9-0.1-2,0.8-2.5l0,0c0.9-0.5,2-0.1,2.5,0.8l19.7,38.5
					c0.5,0.9,0.1,2-0.8,2.5l0,0C141.1,227.4,140,227,139.5,226.1z"/>
			</g>
		</g>
		<g>
			
				<rect x="54.2" y="230.6" transform="matrix(0.8902 -0.4556 0.4556 0.8902 -104.3692 53.2322)" class="st12" width="8" height="25.1"/>
		</g>
	</g>
	<g>
		<path class="st6" d="M79.6,224.6c3-1.3,7.1-2.1,8.2-0.8c1.1,1.2-1.7,6.3-4.5,8.1c-1.4,0.8-8.2,1.3-9.1-0.6
			C73.5,229.8,73.5,227.2,79.6,224.6z"/>
	</g>
</g>
<g class="st1">
	<g>
		<path d="M514.9,446.8l-9.2-25.4c-0.4-1.3-1.3-2.2-2.6-2.7l-1-0.4v-0.6h14.7v0.6l-0.9,0.2c-1.6,0.5-2.1,1.4-1.6,2.9l5.6,17l5-13.2
			l-1.1-3.4c-0.3-0.9-0.6-1.6-0.9-2c-0.3-0.5-0.7-0.8-1.2-1l-1-0.5v-0.6h12.4v0.6l-0.8,0.4c-0.6,0.2-1,0.6-1.1,1
			c-0.1,0.4,0,1,0.2,1.8l5.5,16.7l5.7-16.6c0.6-1.5,0.3-2.5-0.9-2.9l-1.3-0.4v-0.6h7.2v0.6l-1.4,0.4c-0.7,0.2-1.2,0.5-1.5,0.9
			s-0.6,1-0.8,1.7l-8.6,25.4h-3.1l-6.7-19.6l-7.1,19.6H514.9z"/>
	</g>
	<g>
		<path d="M549.5,446.6V446l0.9-0.2c0.8-0.2,1.4-0.6,1.7-1.1c0.3-0.5,0.5-1.1,0.5-1.9v-18.8c0-0.9-0.1-1.5-0.5-2
			c-0.3-0.4-0.9-0.7-1.7-0.9l-0.9-0.2v-0.6l10.3-3.5l0.6,0.6l0.5,5.2v0.5c0.6-1.1,1.3-2.2,2.2-3.1c0.9-0.9,1.9-1.7,3-2.3
			c1.1-0.6,2.2-0.9,3.3-0.9c1.5,0,2.7,0.4,3.5,1.3c0.8,0.8,1.2,1.9,1.2,3.2c0,1.4-0.4,2.4-1.2,3.2c-0.8,0.7-1.7,1.1-2.8,1.1
			c-1.7,0-3.2-0.8-4.4-2.5l-0.1-0.1c-0.4-0.6-0.9-0.9-1.4-0.9c-0.5-0.1-1,0.2-1.4,0.8c-0.4,0.4-0.7,0.8-1,1.3
			c-0.3,0.5-0.5,1.1-0.8,1.7v16.8c0,1.6,0.7,2.6,2.1,3l1.9,0.5v0.6H549.5z"/>
	</g>
	<g>
		<path d="M576.1,446.6V446l0.8-0.2c0.8-0.2,1.4-0.6,1.7-1.1c0.3-0.5,0.5-1.1,0.5-1.9V424c0-0.8-0.1-1.5-0.5-1.9
			c-0.3-0.4-0.9-0.7-1.7-0.9l-0.8-0.2v-0.6l11-3.5l0.6,0.6l-0.2,8.5v16.8c0,0.8,0.1,1.4,0.5,1.9s0.8,0.8,1.6,1.1l0.6,0.2v0.6H576.1z
			 M583.2,413.7c-1.4,0-2.5-0.4-3.5-1.3c-0.9-0.9-1.4-2-1.4-3.3c0-1.4,0.5-2.5,1.4-3.3c0.9-0.8,2.1-1.3,3.5-1.3
			c1.4,0,2.5,0.4,3.4,1.3c0.9,0.8,1.4,1.9,1.4,3.3c0,1.3-0.5,2.4-1.4,3.3C585.7,413.3,584.6,413.7,583.2,413.7z"/>
	</g>
	<g>
		<path d="M604.2,447.5c-2.6,0-4.6-0.6-6-1.9c-1.4-1.3-2.1-3.3-2.1-6.1V419H592v-0.6l1.4-0.2c1.2-0.3,2.3-0.7,3.2-1.2
			c0.9-0.5,1.8-1.2,2.7-2.1l4.9-5.5h0.6l-0.2,8.4h6.7v1.2h-6.8v21.6c0,1.4,0.3,2.5,0.9,3.2c0.6,0.7,1.4,1.1,2.4,1.1
			c0.8,0,1.6-0.2,2.2-0.6c0.6-0.4,1.3-1,1.9-1.7l0.6,0.6c-0.8,1.4-1.9,2.4-3.3,3.2C607.9,447.1,606.2,447.5,604.2,447.5z"/>
	</g>
	<g>
		<path d="M629.4,416.9c2.6,0,4.8,0.5,6.7,1.6c1.8,1.1,3.3,2.5,4.2,4.3c1,1.8,1.5,3.9,1.5,6.2c0,0.4,0,0.9-0.1,1.4
			c0,0.5-0.1,0.9-0.2,1.2h-17.9c0,4.3,0.8,7.4,2.3,9.3s3.7,2.9,6.7,2.9c2,0,3.6-0.3,4.9-1c1.2-0.6,2.4-1.6,3.5-2.8l0.6,0.5
			c-1.2,2.2-2.9,3.9-5,5.2s-4.5,1.9-7.4,1.9c-2.8,0-5.4-0.6-7.6-1.8c-2.2-1.2-3.9-3-5.2-5.3c-1.2-2.3-1.9-5-1.9-8.2
			c0-3.3,0.7-6.1,2.2-8.4c1.4-2.3,3.3-4.1,5.6-5.3C624.5,417.5,626.9,416.9,629.4,416.9z M629.2,418.1c-1.2,0-2.2,0.4-3,1.1
			c-0.8,0.7-1.5,1.9-1.9,3.7c-0.5,1.8-0.7,4.3-0.8,7.5h10.3c0.4-4.4,0.2-7.5-0.5-9.4C632.6,419,631.2,418.1,629.2,418.1z"/>
	</g>
	<g>
		<path d="M667.4,455.8c-4.3,0-8-0.9-11.2-2.6c-3.2-1.8-5.6-4.2-7.4-7.4s-2.6-6.8-2.6-11c0-3.6,0.6-7.1,1.9-10.4
			c1.3-3.3,3.1-6.2,5.5-8.8c2.4-2.6,5.2-4.6,8.6-6.1c3.3-1.5,7.1-2.3,11.2-2.3c4.4,0,8,0.9,11,2.6s5.3,4,6.8,7
			c1.6,2.9,2.3,6.2,2.3,9.8c0,2.6-0.4,5-1.2,7.2c-0.8,2.1-1.9,4-3.2,5.5c-1.3,1.5-2.8,2.7-4.4,3.6c-1.6,0.8-3.3,1.3-5,1.3
			c-2.1,0-3.7-0.6-4.9-1.7c-1.1-1.2-1.8-2.5-2-4c-1.2,2-2.5,3.4-4,4.4s-3,1.4-4.5,1.4c-1.8,0-3.5-0.7-4.8-2.1
			c-1.4-1.4-2.1-3.5-2.1-6.4c0-2.1,0.4-4.2,1.3-6.3s2-4,3.4-5.8c1.4-1.7,3-3.1,4.7-4.2c1.7-1.1,3.4-1.6,5.1-1.6
			c1.8,0,3.4,0.6,4.8,1.7l3.8-1.3l1.5,1l-3.6,20c-0.2,1.2-0.1,2.1,0.3,2.7c0.4,0.7,1,1,1.8,1c1.4,0,2.8-0.7,4.1-2.1
			c1.4-1.4,2.5-3.3,3.4-5.8c0.9-2.5,1.4-5.3,1.4-8.6c0-5.6-1.5-10-4.4-13.2c-2.9-3.1-6.9-4.7-12-4.7c-3.4,0-6.5,0.7-9.3,2.1
			c-2.8,1.4-5.1,3.3-7.1,5.7s-3.5,5.1-4.5,8.2c-1,3-1.6,6.2-1.6,9.5c0,4.4,0.8,8,2.4,11c1.6,3,3.8,5.2,6.6,6.8
			c2.8,1.5,6,2.3,9.6,2.3c1.6,0,3.2-0.2,4.8-0.5c1.6-0.3,3.1-0.8,4.6-1.4l0.4,1.1c-1.7,0.8-3.6,1.4-5.6,1.9S669.5,455.8,667.4,455.8
			z M667.9,439.9c0.7,0,1.4-0.2,2.1-0.5s1.5-1,2.3-1.8l3-16.5c-0.4-0.5-0.9-0.9-1.4-1.1c-0.6-0.2-1.1-0.3-1.7-0.3
			c-1.1,0-2.3,0.6-3.5,1.9c-1.2,1.2-2.3,2.9-3.1,5c-0.9,2.1-1.3,4.5-1.3,7.1c0,2.1,0.4,3.6,1.1,4.7
			C666.1,439.4,666.9,439.9,667.9,439.9z"/>
	</g>
	<g>
		<path d="M708.8,447.5c-2.6,0-4.6-0.6-6-1.9c-1.4-1.3-2.1-3.3-2.1-6.1V419h-4.1v-0.6l1.4-0.2c1.2-0.3,2.3-0.7,3.2-1.2
			c0.9-0.5,1.8-1.2,2.7-2.1l4.9-5.5h0.6l-0.2,8.4h6.7v1.2h-6.8v21.6c0,1.4,0.3,2.5,0.9,3.2c0.6,0.7,1.4,1.1,2.4,1.1
			c0.8,0,1.6-0.2,2.2-0.6c0.6-0.4,1.3-1,1.9-1.7l0.6,0.6c-0.8,1.4-1.9,2.4-3.3,3.2C712.5,447.1,710.8,447.5,708.8,447.5z"/>
	</g>
	<g>
		<path d="M734,416.9c2.6,0,4.8,0.5,6.7,1.6c1.8,1.1,3.3,2.5,4.2,4.3c1,1.8,1.5,3.9,1.5,6.2c0,0.4,0,0.9-0.1,1.4
			c0,0.5-0.1,0.9-0.2,1.2h-17.9c0,4.3,0.8,7.4,2.3,9.3s3.7,2.9,6.7,2.9c2,0,3.6-0.3,4.9-1c1.2-0.6,2.4-1.6,3.5-2.8l0.6,0.5
			c-1.2,2.2-2.9,3.9-5,5.2s-4.5,1.9-7.4,1.9c-2.8,0-5.4-0.6-7.6-1.8c-2.2-1.2-3.9-3-5.2-5.3c-1.2-2.3-1.9-5-1.9-8.2
			c0-3.3,0.7-6.1,2.2-8.4c1.4-2.3,3.3-4.1,5.6-5.3C729.1,417.5,731.5,416.9,734,416.9z M733.8,418.1c-1.2,0-2.2,0.4-3,1.1
			c-0.8,0.7-1.5,1.9-1.9,3.7c-0.5,1.8-0.7,4.3-0.8,7.5h10.3c0.4-4.4,0.2-7.5-0.5-9.4C737.2,419,735.8,418.1,733.8,418.1z"/>
	</g>
	<g>
		<path d="M764.2,447.5c-2.7,0-5.2-0.6-7.4-1.8c-2.2-1.2-4-2.9-5.3-5.2c-1.3-2.3-2-5-2-8.3c0-3.2,0.7-6,2.1-8.3
			c1.4-2.3,3.3-4.1,5.7-5.3c2.4-1.2,5-1.8,7.8-1.8c2.3,0,4.3,0.4,5.9,1.1c1.6,0.8,2.8,1.8,3.7,3c0.8,1.2,1.3,2.5,1.3,3.8
			c0,1.1-0.3,2-1,2.6s-1.6,0.9-2.6,0.9c-1.2,0-2.1-0.4-2.8-1.3c-0.7-0.8-1.1-1.9-1.3-3.3c0-0.9,0-1.6,0.1-2.3c0.1-0.6,0.1-1.3,0-1.9
			c-0.2-0.7-0.4-1.1-0.8-1.4c-0.3-0.2-0.8-0.3-1.4-0.3c-2.4,0-4.3,1.1-5.7,3.2c-1.3,2.1-2,5.5-2,10.1c0,4,0.8,7.1,2.3,9.3
			c1.5,2.1,3.8,3.2,6.9,3.2c1.9,0,3.4-0.3,4.6-1s2.3-1.7,3.4-3.1l0.6,0.5c-1,2.4-2.5,4.2-4.6,5.5
			C769.5,446.9,767.1,447.5,764.2,447.5z"/>
	</g>
	<g>
		<path d="M777.9,446.6V446l0.7-0.2c1.4-0.5,2.2-1.5,2.2-3v-32.1c0-0.8-0.1-1.5-0.4-1.9c-0.3-0.4-0.8-0.7-1.6-0.9l-0.9-0.2v-0.6
			l10.6-2.6l1,0.5l-0.2,8.5v7.5c1.4-1.2,2.9-2.2,4.5-3c1.6-0.8,3.4-1.2,5.4-1.2c2.6,0,4.7,0.7,6.2,2.2c1.5,1.5,2.3,3.8,2.3,6.8v16.9
			c0,0.8,0.2,1.4,0.5,1.9c0.3,0.5,0.9,0.8,1.7,1.1l0.5,0.2v0.6h-14V446l0.7-0.2c1.4-0.5,2.2-1.5,2.2-3.1v-18.9
			c0-1.6-0.3-2.7-0.8-3.3s-1.5-0.9-2.9-0.9c-0.9,0-1.8,0.2-2.9,0.5c-1,0.3-2.1,0.9-3.2,1.8v20.9c0,1.6,0.7,2.6,2.2,3l0.5,0.1v0.6
			H777.9z"/>
	</g>
	<g>
		<path d="M812.6,446.6V446l0.8-0.2c0.8-0.2,1.3-0.5,1.6-1c0.3-0.5,0.5-1.1,0.5-1.9v-18.8c0-0.9-0.1-1.5-0.4-2
			c-0.3-0.4-0.8-0.7-1.6-0.9l-0.9-0.2v-0.6l10.3-3.5l0.6,0.6l0.5,4.1c1.3-1.3,2.8-2.4,4.5-3.4c1.7-0.9,3.5-1.4,5.3-1.4
			c1.9,0,3.5,0.4,4.6,1.2c1.2,0.8,2,2,2.6,3.6c1.6-1.5,3.3-2.7,5.1-3.5s3.6-1.3,5.3-1.3c2.8,0,4.9,0.7,6.3,2c1.3,1.4,2,3.5,2,6.4
			v17.6c0,1.6,0.7,2.5,2.2,2.9l0.7,0.2v0.6h-13.9V446l0.6-0.2c0.8-0.2,1.3-0.6,1.6-1.1s0.5-1.1,0.5-1.9v-18.4c0-1.7-0.3-2.8-0.9-3.5
			c-0.6-0.6-1.6-0.9-2.9-0.9c-1,0-2.1,0.2-3,0.7c-1,0.5-2,1.2-3.1,2.1c0.2,0.6,0.3,1.3,0.4,2.1c0.1,0.8,0.1,1.6,0.1,2.4v15.5
			c0,1.6,0.8,2.5,2.2,2.9l0.5,0.2v0.6h-13.9V446l0.8-0.2c0.8-0.2,1.3-0.6,1.6-1.1c0.3-0.5,0.5-1.1,0.5-1.9v-18.3
			c0-1.6-0.3-2.7-0.9-3.4c-0.6-0.7-1.6-1-3-1c-0.9,0-1.8,0.2-2.8,0.7s-1.9,1.1-2.9,2v20.1c0,1.6,0.7,2.5,2.1,2.9l0.5,0.2v0.6H812.6z
			"/>
	</g>
	<g>
		<path d="M879.9,416.9c2.6,0,4.8,0.5,6.7,1.6c1.8,1.1,3.3,2.5,4.2,4.3c1,1.8,1.5,3.9,1.5,6.2c0,0.4,0,0.9-0.1,1.4
			c0,0.5-0.1,0.9-0.2,1.2h-17.9c0,4.3,0.8,7.4,2.3,9.3s3.7,2.9,6.7,2.9c2,0,3.6-0.3,4.9-1c1.2-0.6,2.4-1.6,3.5-2.8l0.6,0.5
			c-1.2,2.2-2.9,3.9-5,5.2s-4.5,1.9-7.4,1.9c-2.8,0-5.4-0.6-7.6-1.8c-2.2-1.2-3.9-3-5.2-5.3c-1.2-2.3-1.9-5-1.9-8.2
			c0-3.3,0.7-6.1,2.2-8.4c1.4-2.3,3.3-4.1,5.6-5.3C875.1,417.5,877.4,416.9,879.9,416.9z M879.7,418.1c-1.2,0-2.2,0.4-3,1.1
			c-0.8,0.7-1.5,1.9-1.9,3.7c-0.5,1.8-0.7,4.3-0.8,7.5h10.3c0.4-4.4,0.2-7.5-0.5-9.4C883.2,419,881.8,418.1,879.7,418.1z"/>
	</g>
	<g>
		<path d="M895.3,446.6V446l0.8-0.2c1.4-0.4,2.1-1.4,2.1-2.9v-18.8c0-0.9-0.1-1.5-0.4-2c-0.3-0.4-0.8-0.7-1.6-0.9l-0.9-0.2v-0.6
			l10.3-3.5l0.6,0.6l0.5,3.6c1.4-1.2,3-2.3,4.7-3.1c1.8-0.8,3.5-1.2,5.2-1.2c2.6,0,4.7,0.7,6.1,2.2c1.4,1.4,2.1,3.6,2.1,6.6v17.3
			c0,1.6,0.8,2.5,2.3,2.9l0.5,0.2v0.6h-14.2V446l0.8-0.2c1.4-0.4,2.1-1.4,2.1-2.9v-19.2c0-2.6-1.3-3.8-3.8-3.8
			c-1.8,0-3.7,0.9-5.8,2.6v20.4c0,1.6,0.7,2.5,2.1,2.9l0.5,0.2v0.6H895.3z"/>
	</g>
	<g>
		<path d="M941.1,447.5c-2.6,0-4.6-0.6-6-1.9c-1.4-1.3-2.1-3.3-2.1-6.1V419h-4.1v-0.6l1.4-0.2c1.2-0.3,2.3-0.7,3.2-1.2
			c0.9-0.5,1.8-1.2,2.7-2.1l4.9-5.5h0.6l-0.2,8.4h6.7v1.2h-6.8v21.6c0,1.4,0.3,2.5,0.9,3.2c0.6,0.7,1.4,1.1,2.4,1.1
			c0.8,0,1.6-0.2,2.2-0.6c0.6-0.4,1.3-1,1.9-1.7l0.6,0.6c-0.8,1.4-1.9,2.4-3.3,3.2C944.8,447.1,943.1,447.5,941.1,447.5z"/>
	</g>
	<g>
		<path d="M966.4,447.5c-3,0-5.7-0.6-7.9-1.9c-2.2-1.3-4-3.1-5.2-5.4c-1.2-2.3-1.8-5-1.8-8.2s0.6-5.8,2-8.1c1.3-2.3,3.1-4,5.3-5.3
			c2.3-1.2,4.8-1.9,7.7-1.9s5.4,0.6,7.6,1.8c2.2,1.2,4,3,5.3,5.3c1.3,2.3,2,5,2,8.2s-0.6,5.9-1.8,8.2s-2.9,4.1-5.2,5.3
			C972,446.9,969.4,447.5,966.4,447.5z M966.4,446.3c1.4,0,2.5-0.4,3.4-1.2c0.8-0.8,1.5-2.2,1.8-4.3c0.4-2,0.6-4.9,0.6-8.6
			c0-3.8-0.2-6.7-0.6-8.7c-0.4-2-1-3.5-1.8-4.3c-0.8-0.8-2-1.2-3.4-1.2s-2.5,0.4-3.4,1.2c-0.9,0.8-1.5,2.2-1.9,4.3
			c-0.4,2-0.6,4.9-0.6,8.7c0,3.7,0.2,6.6,0.6,8.6c0.4,2,1,3.5,1.9,4.3C963.8,445.9,965,446.3,966.4,446.3z"/>
	</g>
	<g>
		<path d="M983.9,446.6V446l0.9-0.2c0.8-0.2,1.4-0.6,1.7-1.1c0.3-0.5,0.5-1.1,0.5-1.9v-18.8c0-0.9-0.1-1.5-0.5-2
			c-0.3-0.4-0.9-0.7-1.7-0.9l-0.9-0.2v-0.6l10.3-3.5l0.6,0.6l0.5,5.2v0.5c0.6-1.1,1.3-2.2,2.2-3.1s1.9-1.7,3-2.3
			c1.1-0.6,2.2-0.9,3.3-0.9c1.5,0,2.7,0.4,3.5,1.3c0.8,0.8,1.2,1.9,1.2,3.2c0,1.4-0.4,2.4-1.2,3.2c-0.8,0.7-1.7,1.1-2.8,1.1
			c-1.7,0-3.2-0.8-4.4-2.5l-0.1-0.1c-0.4-0.6-0.9-0.9-1.4-0.9c-0.5-0.1-1,0.2-1.4,0.8c-0.4,0.4-0.7,0.8-1,1.3
			c-0.3,0.5-0.5,1.1-0.8,1.7v16.8c0,1.6,0.7,2.6,2.1,3l1.9,0.5v0.6H983.9z"/>
	</g>
	<g>
		<path d="M1020.2,447.5c-2,0-3.7-0.2-5.3-0.7c-1.6-0.5-3-1-4.3-1.7l0.1-7.1h0.6l2,3.6c0.9,1.6,1.9,2.8,2.9,3.6
			c1.1,0.8,2.4,1.2,4.1,1.2c1.9,0,3.5-0.4,4.7-1.3c1.2-0.9,1.8-2,1.8-3.5c0-1.3-0.4-2.4-1.3-3.2c-0.8-0.8-2.4-1.6-4.7-2.3l-2.5-0.8
			c-2.4-0.7-4.4-1.8-5.8-3.4c-1.4-1.5-2.1-3.4-2.1-5.6c0-2.6,1-4.9,3.1-6.7c2.1-1.8,5.1-2.8,8.9-2.8c1.6,0,3,0.2,4.4,0.5
			c1.4,0.3,2.7,0.9,4,1.5l-0.4,6.5h-0.6l-2.1-3.7c-0.8-1.3-1.5-2.3-2.3-2.8c-0.7-0.5-1.9-0.8-3.3-0.8c-1.4,0-2.6,0.4-3.8,1.1
			c-1.2,0.8-1.8,1.8-1.8,3.2c0,1.4,0.5,2.4,1.5,3.2c1,0.8,2.5,1.5,4.5,2.2l2.7,0.8c2.9,0.9,4.9,2.1,6.2,3.6c1.2,1.5,1.9,3.4,1.9,5.6
			c0,2.9-1.2,5.3-3.5,7C1027.6,446.7,1024.3,447.5,1020.2,447.5z"/>
	</g>
	<g>
		<path d="M1042.9,447.5c-1.4,0-2.7-0.5-3.7-1.5c-1-1-1.5-2.2-1.5-3.6c0-1.4,0.5-2.6,1.5-3.7c1-1,2.2-1.6,3.7-1.6
			c1.4,0,2.7,0.5,3.7,1.6c1,1,1.5,2.3,1.5,3.7c0,1.4-0.5,2.6-1.5,3.6C1045.6,447,1044.4,447.5,1042.9,447.5z"/>
	</g>
	<g>
		<path d="M1066.6,447.5c-2.7,0-5.2-0.6-7.4-1.8c-2.2-1.2-4-2.9-5.3-5.2c-1.3-2.3-2-5-2-8.3c0-3.2,0.7-6,2.1-8.3
			c1.4-2.3,3.3-4.1,5.7-5.3c2.4-1.2,5-1.8,7.8-1.8c2.3,0,4.3,0.4,5.9,1.1c1.6,0.8,2.8,1.8,3.7,3c0.8,1.2,1.3,2.5,1.3,3.8
			c0,1.1-0.3,2-1,2.6s-1.6,0.9-2.6,0.9c-1.2,0-2.1-0.4-2.8-1.3c-0.7-0.8-1.1-1.9-1.3-3.3c0-0.9,0-1.6,0.1-2.3c0.1-0.6,0.1-1.3,0-1.9
			c-0.2-0.7-0.4-1.1-0.8-1.4c-0.3-0.2-0.8-0.3-1.4-0.3c-2.4,0-4.3,1.1-5.7,3.2c-1.3,2.1-2,5.5-2,10.1c0,4,0.8,7.1,2.3,9.3
			c1.5,2.1,3.8,3.2,6.9,3.2c1.9,0,3.4-0.3,4.6-1s2.3-1.7,3.4-3.1l0.6,0.5c-1,2.4-2.5,4.2-4.6,5.5
			C1071.9,446.9,1069.4,447.5,1066.6,447.5z"/>
	</g>
	<g>
		<path d="M1096.2,447.5c-3,0-5.7-0.6-7.9-1.9c-2.2-1.3-4-3.1-5.2-5.4c-1.2-2.3-1.8-5-1.8-8.2s0.6-5.8,2-8.1c1.3-2.3,3.1-4,5.3-5.3
			c2.3-1.2,4.8-1.9,7.7-1.9s5.4,0.6,7.6,1.8c2.2,1.2,4,3,5.3,5.3c1.3,2.3,2,5,2,8.2s-0.6,5.9-1.8,8.2s-2.9,4.1-5.2,5.3
			C1101.8,446.9,1099.2,447.5,1096.2,447.5z M1096.2,446.3c1.4,0,2.5-0.4,3.4-1.2c0.8-0.8,1.5-2.2,1.8-4.3s0.6-4.9,0.6-8.6
			c0-3.8-0.2-6.7-0.6-8.7s-1-3.5-1.8-4.3c-0.8-0.8-2-1.2-3.4-1.2s-2.5,0.4-3.4,1.2c-0.9,0.8-1.5,2.2-1.9,4.3c-0.4,2-0.6,4.9-0.6,8.7
			c0,3.7,0.2,6.6,0.6,8.6c0.4,2,1,3.5,1.9,4.3C1093.6,445.9,1094.8,446.3,1096.2,446.3z"/>
	</g>
	<g>
		<path d="M1113.7,446.6V446l0.8-0.2c0.8-0.2,1.3-0.5,1.6-1c0.3-0.5,0.5-1.1,0.5-1.9v-18.8c0-0.9-0.1-1.5-0.4-2
			c-0.3-0.4-0.8-0.7-1.6-0.9l-0.9-0.2v-0.6l10.3-3.5l0.6,0.6l0.5,4.1c1.3-1.3,2.8-2.4,4.5-3.4s3.5-1.4,5.3-1.4
			c1.9,0,3.5,0.4,4.6,1.2c1.2,0.8,2,2,2.6,3.6c1.6-1.5,3.3-2.7,5.1-3.5s3.6-1.3,5.3-1.3c2.8,0,4.9,0.7,6.3,2c1.3,1.4,2,3.5,2,6.4
			v17.6c0,1.6,0.7,2.5,2.2,2.9l0.7,0.2v0.6h-13.9V446l0.6-0.2c0.8-0.2,1.3-0.6,1.6-1.1c0.3-0.5,0.5-1.1,0.5-1.9v-18.4
			c0-1.7-0.3-2.8-0.9-3.5c-0.6-0.6-1.6-0.9-2.9-0.9c-1,0-2.1,0.2-3,0.7s-2,1.2-3.1,2.1c0.2,0.6,0.3,1.3,0.4,2.1
			c0.1,0.8,0.1,1.6,0.1,2.4v15.5c0,1.6,0.8,2.5,2.2,2.9l0.5,0.2v0.6h-13.9V446l0.8-0.2c0.8-0.2,1.3-0.6,1.6-1.1
			c0.3-0.5,0.5-1.1,0.5-1.9v-18.3c0-1.6-0.3-2.7-0.9-3.4c-0.6-0.7-1.6-1-3-1c-0.9,0-1.8,0.2-2.8,0.7s-1.9,1.1-2.9,2v20.1
			c0,1.6,0.7,2.5,2.1,2.9l0.5,0.2v0.6H1113.7z"/>
	</g>
</g>
</svg>
