<svg width="42" height="37" viewBox="0 0 42 37" fill="none" xmlns="http://www.w3.org/2000/svg">
<path fill-rule="evenodd" clip-rule="evenodd" d="M37.1585 9.85591C37.1738 10.2483 37.1789 10.6405 37.1789 11.0329C37.1789 22.929 28.7409 36.6623 13.3106 36.6623C8.57065 36.6623 4.16321 35.1641 0.449707 32.6137C1.10613 32.685 1.7728 32.7386 2.44969 32.7386C6.37972 32.7386 9.99945 31.2937 12.8707 28.8681C9.1998 28.8146 6.10011 26.1928 5.03108 22.6258C5.54428 22.7328 6.0728 22.7864 6.61328 22.7864C7.37542 22.7864 8.11539 22.6796 8.82467 22.4655C4.98329 21.6451 2.08993 18.0068 2.08993 13.6372C2.08993 13.5837 2.08993 13.5657 2.08993 13.5301C3.22206 14.19 4.51784 14.6 5.89378 14.6535C3.63976 13.0305 2.15809 10.2661 2.15809 7.14492C2.15809 5.50408 2.5707 3.95234 3.29704 2.6147C7.43338 8.07228 13.6175 11.6572 20.5892 12.0318C20.446 11.3719 20.3727 10.6765 20.3727 9.98088C20.3727 5.00485 24.1288 0.973999 28.763 0.973999C31.1756 0.973999 33.3546 2.0621 34.884 3.80996C36.7987 3.41758 38.5924 2.66855 40.2155 1.63411C39.5864 3.73867 38.2582 5.50399 36.5225 6.60978C38.2207 6.39575 39.8405 5.91457 41.3426 5.20116C40.2156 7.00252 38.797 8.58961 37.1585 9.85591Z" fill="#1EA1F2"/>
</svg>
